<?xml version="1.0" standalone="no"?>
<!DOCTYPE svg PUBLIC "-//W3C//DTD SVG 20010904//EN"
 "http://www.w3.org/TR/2001/REC-SVG-20010904/DTD/svg10.dtd">
<svg version="1.0" xmlns="http://www.w3.org/2000/svg"
 width="940.000000pt" height="940.000000pt" viewBox="0 0 940.000000 940.000000"
 preserveAspectRatio="xMidYMid meet">
<metadata>
Created by potrace 1.11, written by Peter Selinger 2001-2013
</metadata>
<g transform="translate(0.000000,940.000000) scale(0.100000,-0.100000)"
fill="#000000" stroke="none">
<path d="M4355 8594 c-362 -36 -661 -98 -955 -199 -1153 -395 -2050 -1292
-2445 -2445 -134 -390 -193 -734 -202 -1170 -9 -446 34 -791 147 -1183 268
-928 866 -1713 1709 -2245 153 -96 479 -257 664 -327 859 -326 1805 -338 2682
-35 1121 388 2022 1292 2410 2420 335 976 274 2041 -169 2965 -198 413 -431
741 -761 1071 -232 232 -386 360 -625 517 -503 330 -1043 528 -1672 613 -108
15 -683 28 -783 18z m2395 -2368 c-14 -13 -241 -212 -506 -442 -264 -231 -717
-626 -1007 -879 -290 -253 -532 -460 -537 -460 -6 0 -299 252 -652 560 -353
308 -807 703 -1008 879 -201 175 -376 329 -390 342 l-25 24 2075 0 2075 0 -25
-24z m-3879 -421 c139 -121 419 -365 623 -543 204 -178 375 -329 380 -335 6
-9 -188 -276 -619 -853 -345 -461 -634 -846 -641 -854 -12 -12 -14 200 -14
1399 0 904 3 1411 10 1409 5 -1 123 -102 261 -223z m3917 -1880 l-3 -706 -630
842 c-346 463 -631 847 -633 853 -1 7 44 52 100 101 96 83 385 336 938 818
l225 196 3 -699 c1 -384 1 -1016 0 -1405z m-2438 590 l350 -305 346 302 c191
167 352 304 359 306 9 2 1210 -1587 1223 -1620 2 -4 -865 -8 -1927 -8 -1062 0
-1931 2 -1931 5 0 12 1212 1625 1221 1625 5 0 167 -137 359 -305z"/>
</g>
</svg>
