<?xml version="1.0" standalone="no"?>
<!DOCTYPE svg PUBLIC "-//W3C//DTD SVG 20010904//EN"
 "http://www.w3.org/TR/2001/REC-SVG-20010904/DTD/svg10.dtd">
<svg version="1.0" xmlns="http://www.w3.org/2000/svg"
 width="512.000000pt" height="512.000000pt" viewBox="0 0 512.000000 512.000000"
 preserveAspectRatio="xMidYMid meet">
<metadata>
Created by potrace 1.11, written by Peter Selinger 2001-2013
</metadata>
<g transform="translate(0.000000,512.000000) scale(0.100000,-0.100000)"
fill="#000000" stroke="none">
<path d="M2425 4614 c-838 -68 -1548 -619 -1809 -1404 -76 -229 -106 -414
-106 -655 0 -241 30 -426 106 -655 216 -652 751 -1155 1417 -1335 627 -170
1312 -28 1816 375 105 85 281 261 352 355 210 275 337 568 405 935 26 135 26
515 0 650 -68 367 -195 660 -405 935 -71 94 -247 270 -352 355 -280 224 -621
372 -983 425 -109 16 -349 26 -441 19z m755 -978 l0 -224 -172 -4 c-95 -3
-181 -8 -191 -12 -39 -18 -47 -57 -47 -231 l0 -165 204 0 205 0 -5 -32 c-6
-48 -34 -362 -34 -387 0 -21 -3 -21 -185 -21 l-185 0 0 -665 0 -665 -265 0
-265 0 0 660 0 660 -140 0 -140 0 0 225 0 225 140 0 140 0 0 223 c0 154 5 243
15 290 37 175 158 290 350 330 51 11 139 16 323 16 l252 1 0 -224z"/>
</g>
</svg>
