<?xml version="1.0" standalone="no"?>
<!DOCTYPE svg PUBLIC "-//W3C//DTD SVG 20010904//EN"
 "http://www.w3.org/TR/2001/REC-SVG-20010904/DTD/svg10.dtd">
<svg version="1.0" xmlns="http://www.w3.org/2000/svg"
 width="128.000000pt" height="128.000000pt" viewBox="0 0 128.000000 128.000000"
 preserveAspectRatio="xMidYMid meet">
<metadata>
Created by potrace 1.11, written by Peter Selinger 2001-2013
</metadata>
<g transform="translate(0.000000,128.000000) scale(0.100000,-0.100000)"
fill="#000000" stroke="none">
<path d="M506 1184 c-142 -34 -290 -150 -359 -282 -102 -194 -89 -418 34 -598
l28 -42 40 38 c46 44 127 77 209 86 84 8 85 9 66 39 -11 16 -15 40 -12 70 l3
45 -48 0 c-205 0 -285 247 -125 384 69 60 110 69 323 73 l190 4 -44 -26 c-27
-16 -58 -25 -84 -25 l-41 0 32 -32 c60 -63 78 -148 47 -226 -9 -21 -43 -64
-75 -95 -38 -35 -60 -64 -60 -78 0 -14 31 -51 89 -108 60 -57 92 -96 96 -116
4 -16 9 -36 11 -43 8 -28 -18 -109 -48 -146 l-31 -39 39 7 c83 15 185 75 265
155 124 125 176 258 166 431 -7 131 -6 130 -83 130 l-64 0 0 -75 0 -75 -35 0
-35 0 0 75 0 75 -75 0 -75 0 0 30 0 30 75 0 75 0 0 76 0 75 33 -3 32 -3 3 -72
3 -73 55 0 54 0 -19 38 c-77 146 -214 257 -367 296 -75 19 -208 19 -288 0z"/>
<path d="M425 928 c-32 -25 -55 -74 -55 -117 0 -16 9 -58 20 -93 42 -137 168
-187 244 -97 52 61 26 212 -49 286 -37 38 -48 43 -87 43 -31 0 -54 -7 -73 -22z"/>
<path d="M460 346 c-68 -15 -91 -27 -124 -67 -22 -25 -26 -40 -24 -73 3 -38 7
-43 54 -72 68 -40 144 -64 227 -71 64 -6 69 -5 97 22 63 61 61 132 -8 196 -89
84 -109 90 -222 65z"/>
</g>
</svg>
