<?xml version="1.0" standalone="no"?>
<!DOCTYPE svg PUBLIC "-//W3C//DTD SVG 20010904//EN"
 "http://www.w3.org/TR/2001/REC-SVG-20010904/DTD/svg10.dtd">
<svg version="1.0" xmlns="http://www.w3.org/2000/svg"
 width="512.000000pt" height="512.000000pt" viewBox="0 0 512.000000 512.000000"
 preserveAspectRatio="xMidYMid meet">
<metadata>
Created by potrace 1.11, written by Peter Selinger 2001-2013
</metadata>
<g transform="translate(0.000000,512.000000) scale(0.100000,-0.100000)"
fill="#000000" stroke="none">
<path d="M2380 4804 c-14 -2 -65 -9 -115 -15 -49 -6 -151 -26 -225 -45 -816
-204 -1461 -848 -1664 -1663 -53 -210 -60 -280 -61 -556 0 -292 15 -408 81
-638 289 -1006 1236 -1693 2279 -1654 194 8 327 27 505 73 620 161 1153 586
1450 1158 336 645 346 1412 26 2063 -163 331 -389 607 -674 821 -308 231 -630
370 -1017 438 -86 15 -523 29 -585 18z m854 -1397 c30 -14 82 -44 116 -67 l61
-41 82 27 c45 15 106 38 136 51 30 13 56 21 58 19 9 -8 -38 -86 -91 -152 -30
-38 -52 -72 -47 -77 4 -4 43 4 87 17 87 28 104 31 104 16 0 -5 -45 -57 -99
-114 -75 -79 -101 -113 -105 -138 -2 -18 -10 -80 -16 -138 -42 -381 -219 -707
-510 -942 -145 -117 -352 -207 -555 -242 -197 -34 -470 -15 -645 44 -81 28
-265 114 -274 128 -4 6 31 12 102 17 129 7 224 25 314 58 71 26 221 107 213
115 -3 3 -35 16 -71 29 -123 43 -219 110 -278 196 -20 29 -37 63 -38 77 -3 25
-2 25 82 30 l85 5 -55 29 c-84 43 -157 104 -201 165 -42 59 -93 200 -87 243
l3 25 75 -22 c41 -13 79 -19 83 -15 5 4 -13 34 -39 66 -74 92 -106 169 -112
273 -5 89 6 158 36 234 l15 38 91 -89 c245 -238 477 -351 815 -397 l43 -6 -6
64 c-20 180 80 365 244 451 88 47 133 56 243 51 66 -3 101 -10 141 -28z"/>
</g>
</svg>
