<?xml version="1.0" standalone="no"?>
<!DOCTYPE svg PUBLIC "-//W3C//DTD SVG 20010904//EN"
 "http://www.w3.org/TR/2001/REC-SVG-20010904/DTD/svg10.dtd">
<svg version="1.0" xmlns="http://www.w3.org/2000/svg"
 width="1096.000000pt" height="1096.000000pt" viewBox="0 0 1096.000000 1096.000000"
 preserveAspectRatio="xMidYMid meet">
<metadata>
Created by potrace 1.11, written by Peter Selinger 2001-2013
</metadata>
<g transform="translate(0.000000,1096.000000) scale(0.100000,-0.100000)"
fill="#000000" stroke="none">
<path d="M5125 9995 c-199 -20 -343 -43 -525 -82 -1486 -316 -2747 -1383
-3303 -2793 -137 -347 -232 -735 -279 -1135 -9 -74 -13 -250 -13 -535 0 -452
9 -569 66 -870 262 -1384 1210 -2600 2514 -3226 454 -217 886 -345 1410 -416
152 -20 210 -23 545 -22 406 0 535 10 843 70 894 172 1710 607 2367 1264 997
996 1474 2353 1315 3738 -139 1203 -793 2340 -1775 3087 -666 506 -1406 808
-2235 911 -179 22 -750 28 -930 9z m-861 -1942 c60 -214 111 -391 115 -395 4
-5 53 168 109 384 56 215 104 393 106 395 2 2 86 2 188 1 l185 -3 -87 -300
c-48 -165 -109 -360 -135 -434 -84 -240 -140 -496 -165 -756 -7 -60 -10 -225
-9 -365 2 -140 0 -283 -5 -317 l-8 -63 -184 0 -185 0 2 393 c2 505 -4 543
-135 946 -71 214 -246 798 -261 869 l-7 32 185 0 184 0 107 -387z m1225 -184
c161 -37 295 -177 336 -350 22 -99 23 -939 0 -1023 -58 -217 -222 -336 -460
-336 -226 0 -377 106 -431 302 -34 121 -40 884 -8 1042 37 185 152 314 324
362 55 15 180 17 239 3z m919 -687 l2 -673 38 6 c63 11 125 47 147 85 19 34
20 54 23 643 l3 607 164 0 165 0 0 -815 0 -814 -37 -11 c-56 -16 -155 -24
-198 -16 -25 5 -51 22 -81 51 l-44 45 -66 -41 c-137 -83 -248 -105 -330 -63
-49 25 -99 98 -113 164 -12 55 -16 1363 -4 1458 l6 52 161 -2 161 -3 3 -673z
m1046 -1342 c317 -45 543 -252 611 -560 14 -65 17 -176 22 -830 2 -423 0 -856
-5 -985 -9 -217 -12 -236 -41 -327 -89 -273 -308 -443 -616 -478 -72 -8 -609
-10 -1935 -7 l-1835 4 -96 32 c-60 19 -125 50 -170 79 -85 56 -189 163 -238
245 -42 71 -87 201 -101 292 -7 49 -10 360 -7 985 3 994 2 965 60 1110 79 194
230 338 427 405 40 14 101 29 134 34 91 13 3697 13 3790 1z"/>
<path d="M5331 7494 c-66 -56 -65 -48 -65 -479 0 -438 -1 -431 73 -481 54 -35
98 -30 128 15 l23 34 0 432 0 432 -23 34 c-19 28 -30 35 -63 37 -33 2 -48 -3
-73 -24z"/>
<path d="M5855 5283 c-33 -2 -75 -5 -92 -8 l-33 -6 0 -1033 0 -1033 153 32
c152 32 154 32 188 14 56 -30 158 -59 208 -59 62 0 128 34 163 85 58 84 60
112 56 718 -4 546 -4 553 -26 609 -26 64 -80 119 -137 138 -71 24 -153 9 -262
-45 -54 -28 -101 -51 -105 -53 -5 -2 -8 143 -8 322 l0 326 -22 -2 c-13 -1 -50
-3 -83 -5z m315 -760 c15 -9 39 -35 52 -57 l23 -41 3 -430 c2 -236 0 -449 -3
-473 -4 -27 -17 -55 -35 -75 -26 -30 -33 -32 -93 -32 -75 0 -111 19 -139 76
-16 31 -18 75 -18 479 0 419 2 447 20 488 31 69 127 102 190 65z"/>
<path d="M3598 5153 c2 -65 6 -120 8 -122 4 -4 260 -30 302 -31 l22 0 0 -885
0 -885 155 0 155 0 0 884 0 884 53 6 c28 3 84 8 122 11 39 3 85 8 103 11 l32
5 0 119 0 120 -479 0 -478 0 5 -117z"/>
<path d="M7071 4765 c-121 -34 -219 -115 -268 -221 -37 -82 -46 -218 -40 -659
6 -409 11 -453 60 -538 36 -61 108 -122 176 -149 81 -32 271 -32 352 0 68 27
131 79 164 137 37 63 58 174 50 265 -11 130 -2 121 -119 118 l-101 -3 -21
-100 c-11 -55 -27 -113 -35 -129 -46 -95 -188 -94 -235 1 -17 34 -19 62 -19
248 l0 210 140 8 c77 4 199 10 270 15 l130 7 0 240 c-1 270 -9 319 -70 412
-41 62 -86 98 -157 125 -71 27 -205 33 -277 13z m159 -257 c18 -13 41 -34 51
-48 22 -30 39 -128 39 -222 l0 -68 -139 0 -138 0 -6 88 c-10 155 13 214 98
253 51 24 55 24 95 -3z"/>
<path d="M5131 4178 c0 -304 -2 -566 -7 -583 -22 -91 -73 -124 -191 -125 l-73
0 0 625 0 625 -135 0 -135 0 0 -602 c1 -658 6 -764 42 -836 61 -123 195 -124
383 -1 42 27 80 47 85 44 5 -3 22 -28 37 -55 l28 -50 76 0 c42 0 91 3 108 6
l31 7 0 748 0 749 -125 0 -125 0 1 -552z"/>
</g>
</svg>
