<?xml version="1.0" standalone="no"?>
<!DOCTYPE svg PUBLIC "-//W3C//DTD SVG 20010904//EN"
 "http://www.w3.org/TR/2001/REC-SVG-20010904/DTD/svg10.dtd">
<svg version="1.0" xmlns="http://www.w3.org/2000/svg"
 width="4096.000000pt" height="4096.000000pt" viewBox="0 0 4096.000000 4096.000000"
 preserveAspectRatio="xMidYMid meet">
<metadata>
Created by potrace 1.11, written by Peter Selinger 2001-2013
</metadata>
<g transform="translate(0.000000,4096.000000) scale(0.100000,-0.100000)"
fill="#000000" stroke="none">
<path d="M22945 32763 c-10 -15 -167 -233 -349 -483 -447 -616 -521 -733 -687
-1075 -235 -487 -378 -983 -445 -1545 -22 -182 -30 -699 -15 -901 150 -1969
1439 -3843 3366 -4892 516 -281 1197 -541 1615 -617 514 -93 918 -130 1415
-130 317 0 476 8 715 35 1333 154 2427 751 3245 1770 217 271 379 513 601 902
75 131 141 244 147 251 5 7 8 14 5 17 -2 2 -29 -30 -60 -73 -149 -204 -400
-471 -601 -637 -1018 -843 -2404 -1090 -4164 -744 -767 151 -1461 414 -2128
807 -1096 646 -2003 1625 -2570 2774 -746 1510 -800 3088 -150 4396 80 161 97
203 60 145z"/>
<path d="M17610 31558 c-24 -35 -331 -470 -683 -968 -648 -915 -729 -1033
-876 -1285 -102 -173 -286 -541 -368 -735 -583 -1375 -724 -2950 -407 -4539
203 -1019 572 -1954 1152 -2921 244 -407 686 -1043 912 -1313 114 -135 911
-934 1095 -1096 1048 -926 2216 -1622 3500 -2086 274 -99 752 -253 855 -275
168 -37 674 -107 1035 -144 509 -52 918 -70 1475 -63 446 6 567 11 900 42
2626 245 4770 1459 6172 3495 371 539 720 1212 889 1710 l18 55 -22 -29 c-12
-17 -74 -100 -138 -185 -540 -722 -1244 -1345 -2064 -1827 -203 -119 -610
-324 -830 -417 -827 -351 -1648 -551 -2605 -634 -256 -22 -1105 -25 -1345 -5
-744 63 -1360 171 -1983 348 -1357 385 -2579 1001 -3677 1853 -567 439 -1146
991 -1606 1531 -1304 1529 -2103 3350 -2268 5170 -32 348 -41 862 -21 1190 60
983 295 1901 699 2735 78 161 156 309 221 418 34 57 19 44 -30 -25z"/>
<path d="M11023 29198 c-22 -29 -420 -535 -885 -1125 -949 -1202 -1024 -1307
-1313 -1828 -1428 -2574 -1523 -5869 -262 -9085 517 -1317 1264 -2587 2191
-3720 563 -689 1206 -1345 1872 -1909 757 -642 1546 -1191 2409 -1676 275
-155 849 -445 1145 -578 598 -269 1137 -469 1855 -690 380 -117 383 -118 630
-161 740 -130 1429 -209 2250 -258 283 -16 1267 -16 1545 0 1014 61 1852 191
2717 423 1643 439 3153 1231 4424 2320 425 365 904 842 1264 1264 506 590 955
1233 1330 1900 152 269 371 719 450 920 l15 40 -27 -35 c-231 -289 -347 -423
-564 -656 -441 -470 -973 -920 -1539 -1299 -1580 -1059 -3513 -1656 -5719
-1765 -263 -13 -1014 -13 -1291 0 -917 43 -1901 177 -2756 375 -276 64 -836
235 -1219 372 -1803 644 -3432 1603 -4875 2867 -309 271 -771 721 -1064 1036
-1271 1366 -2222 2885 -2840 4532 -1107 2955 -1036 6046 199 8576 57 116 102
212 101 212 -2 0 -21 -24 -43 -52z"/>
</g>
</svg>
