<?xml version="1.0" encoding="utf-8"?>
<!-- Generator: Adobe Illustrator 16.0.0, SVG Export Plug-In . SVG Version: 6.00 Build 0)  -->
<!DOCTYPE svg PUBLIC "-//W3C//DTD SVG 1.1//EN" "http://www.w3.org/Graphics/SVG/1.1/DTD/svg11.dtd">
<svg version="1.1" xmlns="http://www.w3.org/2000/svg" xmlns:xlink="http://www.w3.org/1999/xlink" x="0px" y="0px" width="1012px"
	 height="180px" viewBox="0 0 1012 180" enable-background="new 0 0 1012 180" xml:space="preserve">
<g id="name">
	<g transform="translate(0.000000,256.000000) scale(0.100000,-0.100000)">
		<path d="M3618.842,2199.521c-60.41-17.769-149.233-67.524-206.064-103.052c-167.002-117.236-202.529-234.482-202.529-650.2
			v-373.066h88.823c88.823,0,88.823,0,88.823,351.758c0,298.442,10.654,362.397,71.064,440.561
			c95.938,120.82,277.124,156.348,422.803,78.174c149.229-74.6,181.206-174.111,181.206-554.262v-316.23h106.587h110.146
			l-7.114,390.84c-3.555,341.069-14.204,405.053-81.709,490.307C4020.322,2171.103,3814.257,2263.467,3618.842,2199.521z"/>
		<path d="M7473.847,2217.285c-106.602-17.764-302.012-156.353-376.602-273.589c-71.074-110.127-92.402-323.306-46.23-465.434
			c42.656-142.129,191.875-277.168,376.641-351.758s358.848-28.418,532.949,135c220.293,209.648,241.602,543.608,46.191,760.366
			C7854.022,2188.867,7683.476,2252.812,7473.847,2217.285z M7754.55,1950.815c60.371-24.883,99.473-56.875,85.234-71.064
			c-10.645-14.229-7.109-24.873,14.238-24.873c63.945,0,85.254-209.644,31.953-337.553
			c-67.48-159.883-245.137-220.293-426.367-145.645c-149.199,63.945-213.184,195.41-184.727,376.596
			C7310.409,1964.995,7512.909,2050.288,7754.55,1950.815z"/>
		<path d="M2016.44,2096.469c-238.042-188.301-266.475-241.592-252.266-476.079c10.669-163.476,35.527-241.64,99.492-316.23
			c103.032-120.82,351.743-230.957,515.186-230.957c110.146,0,120.796,10.664,120.796,103.047
			c0,92.363-10.649,103.027-174.092,120.781c-95.938,10.664-209.624,42.656-248.711,67.52
			c-174.092,106.602-181.206,394.389-14.209,525.854c74.6,56.836,145.659,71.055,369.512,71.055h280.679v-444.135v-444.121h106.592
			h106.592v550.722v550.713h-405.039C2158.559,2174.638,2108.818,2167.529,2016.44,2096.469z"/>
		<path d="M4560.385,2068.052V1961.46h312.656c280.708,0,323.325-7.109,387.29-78.164
			c159.883-177.656,131.445-405.034-67.52-525.854c-88.828-53.281-181.191-71.055-373.066-71.055h-259.36v-106.582v-106.602h277.129
			c358.853,3.555,554.263,95.938,675.063,323.32c124.355,234.511,92.383,426.362-113.682,621.772l-156.328,145.693l-341.094,7.114
			l-341.089,7.08V2068.052L4560.385,2068.052z"/>
		<path d="M5846.581,2078.701l10.645-99.468l326.885-10.664c291.357-7.109,333.955-17.754,369.482-81.699
			c53.301-103.057,10.703-230.957-81.699-259.409c-46.191-10.645-206.074-21.309-358.848-21.309h-277.138l10.673-95.937
			c10.645-95.938,14.18-99.473,277.119-110.117c294.893-10.664,369.521-53.301,405.049-223.848
			c17.773-85.273,35.547-103.047,127.91-103.047c95.938,0,106.582,10.664,99.473,106.602
			c-3.535,56.816-35.527,138.574-67.48,181.172c-56.875,78.184-56.875,85.293,28.398,199.004
			c124.355,159.878,99.492,376.597-60.391,518.721c-103.066,92.402-124.355,95.938-465.43,95.938h-355.322L5846.581,2078.701z"/>
		<path d="M8397.616,1623.926v-550.722h106.602H8610.8v550.722v550.713h-106.582h-106.602V1623.926z"/>
		<path d="M8895.038,2075.166v-106.597l334.004-14.219c301.992-10.654,341.055-17.773,408.594-95.938
			c142.109-163.418,60.371-461.889-142.129-532.964c-63.984-21.289-223.867-39.062-355.293-39.062h-245.176v-106.582v-106.602
			h262.93c490.312,0,739.023,188.301,756.777,568.476c7.129,174.116-3.574,209.653-106.582,323.315
			c-163.457,181.23-216.758,198.994-582.695,206.108l-330.43,7.08V2075.166L8895.038,2075.166z"/>
	</g>
</g>
<g id="logo">
	<g transform="translate(0.000000,500.000000) scale(0.100000,-0.100000)">
		<path d="M564.8,4826.171c-4.316-1.548-7.09-5.249-7.09-9.248c0-3.701,14.18-32.69,31.143-64.15
			c28.062-51.187,30.84-57.349,25.903-60.435c-57.969-34.536-110.396-81.416-140.308-126.431
			c-32.686-48.423-54.59-111.636-57.666-165.601l-1.846-27.129h404.888h404.902l-1.851,28.662
			c-8.33,117.183-77.71,219.263-197.983,290.498c-4.932,3.086-3.384,7.095,15.732,41.631c11.406,21.274,25.601,46.87,31.147,57.051
			c11.406,21.27,12.642,30.835,4.316,35.459c-9.863,4.932-14.814,0.615-28.374-24.058c-7.09-13.257-21.582-39.771-32.378-59.512
			l-19.746-35.776l-29.59,10.181c-97.759,34.229-206.924,33.613-299.443-1.855l-22.197-8.623l-32.686,59.502
			c-17.881,32.69-34.233,60.142-36.392,61.064C573.125,4828.017,568.501,4827.709,564.8,4826.171z M655.771,4577.934
			c15.112-9.873,16.343-36.084,2.773-49.956c-4.316-4.316-12.642-8.032-19.736-8.955c-10.786-1.23-13.872-0.308-23.433,8.325
			c-9.873,8.33-11.411,11.724-11.411,22.817C603.965,4578.857,631.411,4593.652,655.771,4577.934z M1015.337,4581.625
			c26.216-11.094,28.062-47.178,2.773-58.901c-15.107-7.388-29.6-4.009-39.463,8.94c-13.574,17.896-8.027,41.338,12.329,49.961
			C1002.695,4586.875,1003.003,4586.875,1015.337,4581.625z"/>
		<path d="M263.823,4353.432c-28.364-10.488-50.571-34.854-57.666-63.535c-2.158-9.551-3.081-76.162-2.461-218.94l0.923-205.078
			l7.09-13.867c9.868-18.809,23.75-32.988,42.246-42.559c12.642-6.465,19.741-7.695,40.088-8.008c20.972,0,27.139,1.23,40.4,8.32
			c19.731,10.176,36.387,28.984,44.404,50.879c6.167,16.348,6.479,21.914,5.547,223.886l-0.923,206.919l-7.402,14.805
			c-9.248,17.881-25.586,34.521-41.938,43.174C318.408,4357.436,280.478,4359.604,263.823,4353.432z"/>
		<path d="M1316.006,4352.817c-18.198-5.557-41.021-25.605-51.499-45.654l-8.33-15.713v-211.235c0-208.144,0-211.543,6.475-225.429
			c15.728-34.219,45.952-53.34,82.959-53.34c39.155,0,70.923,21.895,84.492,57.969c6.475,17.266,6.475,21.289,6.475,218.965
			c0,230.337,0.928,221.401-24.98,249.771C1386.924,4355.278,1352.392,4364.213,1316.006,4352.817z"/>
		<path d="M418.935,4340.17c0-1.543,0-138.457,0-304.37v-301.894l8.325-18.203c9.873-22.188,28.994-39.766,52.119-48.73
			c13.877-4.922,24.365-6.152,58.281-6.152h41.323l0.923-113.477c0.928-128.594,0.308-125.215,28.066-151.113
			c19.126-17.578,32.993-22.812,60.742-23.418c18.818-0.332,25.908,1.23,38.55,7.07c24.365,12.031,40.088,30.234,47.495,54.277
			c5.859,19.121,6.479,28.379,6.479,123.652v103.008h58.584h58.594v-102.383c0-112.559,1.543-125.801,17.886-148.945
			c17.583-24.961,55.508-41.621,84.8-37.012c29.912,4.941,57.056,23.75,70.928,49.355c6.475,12.031,6.782,16.348,7.71,125.508
			l0.933,112.852l45.327,1.23c42.246,0.938,46.567,1.562,62.905,9.57c18.506,9.258,35.156,25.898,44.712,45.039
			c5.254,10.469,5.552,28.672,6.475,318.847l0.62,307.446H819.824C599.336,4342.329,418.935,4341.401,418.935,4340.17z"/>
	</g>
</g>
</svg>
