<?xml version="1.0" standalone="no"?>
<!DOCTYPE svg PUBLIC "-//W3C//DTD SVG 20010904//EN"
 "http://www.w3.org/TR/2001/REC-SVG-20010904/DTD/svg10.dtd">
<svg version="1.0" xmlns="http://www.w3.org/2000/svg"
 width="382.000000pt" height="99.000000pt" viewBox="0 0 382.000000 99.000000"
 preserveAspectRatio="xMidYMid meet">
<metadata>
Created by potrace 1.11, written by Peter Selinger 2001-2013
</metadata>
<g transform="translate(0.000000,99.000000) scale(0.100000,-0.100000)"
fill="#000000" stroke="none">
<path d="M240 861 c-180 -65 -185 -68 -188 -97 -2 -30 52 -512 59 -518 14 -10
338 -186 344 -186 4 0 85 43 179 95 l172 95 32 253 c18 138 32 261 32 272 0
17 -30 30 -198 88 -108 37 -208 67 -222 66 -14 0 -108 -31 -210 -68z m369
-280 c77 -167 141 -308 141 -313 0 -11 -67 -10 -89 1 -10 6 -30 39 -45 75
l-28 66 -128 0 -128 0 -28 -70 -27 -70 -54 0 c-29 0 -53 2 -53 4 0 3 52 121
116 263 64 142 127 282 140 312 14 31 28 51 33 45 4 -5 72 -146 150 -313z"/>
<path d="M413 595 l-41 -95 89 0 89 0 -46 93 c-25 50 -47 93 -48 94 -2 2 -21
-40 -43 -92z"/>
<path d="M2601 511 c-50 -114 -91 -211 -91 -215 0 -3 11 -6 24 -6 24 0 39 30
142 288 9 24 20 40 25 35 4 -4 21 -42 37 -83 l30 -75 -51 -5 c-39 -4 -53 -9
-55 -22 -3 -16 5 -18 61 -18 l65 0 24 -60 c21 -54 26 -60 52 -60 23 0 27 3 21
17 -30 80 -180 413 -185 413 -4 0 -48 -94 -99 -209z"/>
<path d="M1000 485 l0 -195 25 0 24 0 3 152 3 152 113 -151 c81 -108 119 -152
137 -155 14 -3 27 -3 30 0 3 3 5 92 5 199 l0 193 -25 0 -24 0 -3 -154 -3 -154
-118 154 c-95 124 -123 154 -143 154 l-24 0 0 -195z"/>
<path d="M1499 657 c-53 -29 -79 -69 -86 -139 -10 -101 38 -193 112 -218 41
-14 127 -16 173 -6 l32 8 0 84 0 85 -26 -3 c-26 -3 -27 -5 -28 -68 l-1 -65
-52 -3 c-104 -6 -157 46 -158 155 0 105 59 157 170 150 33 -2 67 -6 75 -8 9
-2 16 4 18 17 4 27 -19 34 -114 34 -55 0 -81 -5 -115 -23z"/>
<path d="M1810 531 c0 -138 2 -150 23 -182 12 -19 36 -40 52 -48 40 -20 143
-18 183 3 55 28 66 63 70 229 l4 149 -28 -4 -29 -3 -5 -147 c-5 -138 -6 -148
-29 -172 -34 -36 -117 -37 -158 -2 l-28 24 -3 151 -3 151 -25 0 -24 0 0 -149z"/>
<path d="M2230 485 l0 -195 125 0 c118 0 125 1 125 20 0 19 -7 20 -100 20
l-100 0 0 175 0 175 -25 0 -25 0 0 -195z"/>
<path d="M2950 485 l0 -195 25 0 25 0 0 175 0 175 59 0 c87 0 111 -12 111 -54
0 -39 -31 -70 -80 -81 -19 -4 -30 -13 -30 -23 0 -10 27 -55 61 -102 46 -65 67
-86 90 -91 16 -4 31 -4 33 0 3 4 -22 43 -54 86 -33 44 -59 85 -60 91 0 6 14
17 31 24 17 8 40 27 50 44 27 45 24 82 -10 117 -29 29 -31 29 -140 29 l-111 0
0 -195z"/>
<path d="M3395 524 c0 -152 -1 -156 -24 -175 -13 -10 -32 -19 -42 -19 -12 0
-19 -7 -19 -20 0 -40 96 -14 122 33 8 14 14 79 16 180 l4 157 -28 0 -29 0 0
-156z"/>
<path d="M3582 665 c-46 -20 -68 -75 -53 -127 16 -51 43 -67 135 -75 46 -3 83
-12 92 -20 21 -22 17 -69 -8 -93 -20 -19 -32 -21 -103 -18 -44 3 -87 6 -95 9
-10 3 -14 -2 -12 -16 2 -11 6 -22 9 -25 10 -11 169 -12 204 -1 59 18 87 91 58
154 -16 36 -46 49 -131 56 -84 7 -93 12 -103 53 -5 21 -1 33 20 54 25 25 30
26 103 22 42 -3 85 -8 95 -12 14 -7 17 -3 17 17 0 19 -6 26 -31 31 -55 11
-163 6 -197 -9z"/>
</g>
</svg>
