<?xml version="1.0" encoding="utf-8"?>
<!-- Generator: Adobe Illustrator 16.0.0, SVG Export Plug-In . SVG Version: 6.00 Build 0)  -->
<!DOCTYPE svg PUBLIC "-//W3C//DTD SVG 1.1//EN" "http://www.w3.org/Graphics/SVG/1.1/DTD/svg11.dtd">
<svg version="1.1" xmlns="http://www.w3.org/2000/svg" xmlns:xlink="http://www.w3.org/1999/xlink" x="0px" y="0px" width="1680px"
	 height="500px" viewBox="0 0 1680 500" enable-background="new 0 0 1680 500" xml:space="preserve">
<g id="name">
	<g transform="translate(0.000000,500.000000) scale(0.100000,-0.100000)">
		<path d="M6425,3887.998C6322.001,3835,6275,3752.001,6275,3620c0-102.998,27.002-171.001,87.002-226.001
			c55-48.999,95.996-63.999,175-63.999C6665,3331,6747.998,3397.001,6775,3517.998l7.002,32.002h-50c-49.004,0-50-1.001-56.006-35
			c-8.994-45-63.994-100-107.998-108.999c-67.998-12.002-135.996,21.997-170,86.997C6380,3527.001,6375,3551,6375,3620
			c0,72.002,4.004,92.002,25,128.999c32.002,57.002,79.004,85,142.002,85c57.002,0,92.998-22.998,122.998-76.997
			c19.004-35,22.998-37.002,67.998-37.002c52.998,0,56.006,5,27.998,66.001C6722.001,3871,6654.003,3910,6540,3908.999
			C6484.003,3908.999,6455,3903.999,6425,3887.998z"/>
		<path d="M4802.001,3637.998c-55-145-104.004-270.996-107.002-280.996c-7.002-16.001-2.002-18.003,45-15l52.998,2.998l25,72.998
			l24.004,72.002H4955h112.998l24.004-72.002l25-72.998l50.996-2.998c29.004-2.002,52.002,0,52.002,2.998
			c0,5-155.996,415-195.996,516.001C5007.998,3898.999,5007.001,3900,4955,3900h-52.002L4802.001,3637.998z M5000,3681
			c22.002-62.002,40-115,40-117.002c0-1.997-39.004-3.999-85.996-3.999c-65,0-85,2.998-82.002,12.998
			c2.998,6.001,22.002,60,42.998,120c20.996,59.004,39.004,106.001,40.996,104.004C4957.998,3796,4977.001,3742.998,5000,3681z"/>
		<path d="M5290,3621V3340h50h50v110v110h110c135,0,177.998,17.002,210.996,82.002c27.002,52.998,23.008,143.999-6.992,185
			c-48.008,63.999-60,67.998-245,70.996L5290,3901V3621z M5605,3795c27.002-26.001,34.004-80,14.004-117.002
			C5602.001,3647.001,5547.998,3630,5465,3630h-75v95v95h95C5572.998,3820,5582.998,3817.998,5605,3795z"/>
		<path d="M5832.001,3637.998c-55-145-104.004-270.996-107.002-280.996c-7.002-16.001-2.002-18.003,45-15l52.998,2.998l25,72.998
			l24.004,72.002H5985h112.998l24.004-72.002l25-72.998l50.996-2.998c29.004-2.002,52.002,0,52.002,2.998
			c0,5-155.996,415-195.996,516.001C6037.998,3898.999,6037.001,3900,5985,3900h-52.002L5832.001,3637.998z M6030,3681
			c22.002-62.002,40-115,40-117.002c0-1.997-39.004-3.999-85.996-3.999c-65,0-85,2.998-82.002,12.998
			c2.998,6.001,22.002,60,42.998,120c20.996,59.004,39.004,106.001,40.996,104.004C5987.998,3796,6007.001,3742.998,6030,3681z"/>
		<path d="M6880,3620v-280h50h50v125v125h125h125v-125v-125h50h50v280v280h-50h-50v-110v-110h-125h-125v110v110h-50h-50V3620z"/>
		<path d="M7459.999,3620v-280h205h205v40v40h-155h-155v85v85h140h140v40v40h-140h-140v75v75h155h155v40v40h-205h-205V3620z"/>
		<path d="M5264.003,3060c-231.006-42.002-430-202.002-529.004-425c-102.998-234.004-105.996-565.996-7.998-807.998
			c27.998-69.004,92.998-172.998,142.998-230c72.002-82.998,222.002-169.004,350-204.004c92.002-23.994,310.996-23.994,400,1.006
			c152.002,41.992,300.996,155,379.004,287.998c43.994,75,88.994,208.994,96.992,287.002l7.002,60.996h-75h-75l-20.996-87.002
			C5875,1710,5732.001,1557.002,5532.998,1515c-87.998-19.004-145.996-19.004-240.996,0.996
			c-172.002,35-312.002,144.004-391.006,305c-66.992,137.002-83.994,218.008-83.994,399.004
			c0,180.996,17.002,262.002,83.994,398.999C5005.996,2831,5222.998,2955,5460,2937.001c214.004-17.002,375-136.001,445-330
			l22.998-62.002l77.002-2.998l77.998-3.003l-7.002,42.002c-32.998,205-196.992,382.998-420.996,456.001
			c-65.996,20.996-102.998,25.996-210,28.999C5374.003,3067.001,5292.001,3065,5264.003,3060z"/>
		<path d="M6900,3055c-275.996-56.001-479.004-258.999-560.996-565c-21.006-74.004-23.008-107.998-23.008-270
			c0-217.998,15-294.004,92.002-450c37.998-77.998,61.006-110,132.002-180.996c140-142.002,282.002-204.004,490-216.006
			c155.996-7.998,267.001,12.998,397.998,77.002c207.998,102.998,341.006,285.996,397.998,545.996
			c23.008,108.008,23.008,340,0,448.008c-70.996,326.997-280,549.995-568.994,609.995
			C7165.996,3072.998,6992.001,3073.999,6900,3055z M7270.995,2911c153.008-48.003,286.006-177.002,356.006-346.001
			c45.996-112.002,57.998-182.002,57.002-350c0-145-3.008-169.004-28.008-250c-40.996-134.004-88.994-219.004-170-300
			c-120-119.004-268.994-172.998-445.996-160.996C6720.996,1525,6515,1745,6470,2112.002
			c-32.002,262.998,59.004,550,217.998,687.998c60,52.002,169.004,106.001,252.002,125
			C7027.001,2945,7182.998,2937.998,7270.995,2911z"/>
		<path d="M11834.999,3053.999c-77.002-16.001-190-66.001-259.004-112.998c-203.994-141.001-325.996-410-325.996-721.001
			c0-530,335.996-877.002,820-845.996c122.002,6.992,207.002,27.998,295.996,71.992c169.004,83.008,300,235,365,421.006
			c81.006,235,76.006,520-15,745c-40.996,100-87.998,170-171.992,253.999c-140,141.997-306.006,205-531.006,202.998
			C11954.003,3068.999,11874.003,3062.001,11834.999,3053.999z M12210.995,2911c185-58.003,325-218.003,391.006-446.001
			c20-70,22.998-100.996,22.002-245c0-137.002-4.004-177.998-22.002-244.004c-77.998-280.996-267.002-450-530-471.992
			c-246.006-20-461.006,95-571.006,305C11339.003,2120,11387.001,2556,11607.001,2776
			c72.002,71.997,170.996,126.001,272.998,148.999C11967.001,2945,12122.997,2937.998,12210.995,2911z"/>
		<path d="M8139.999,2220.996V1400h75h75l2.002,362.998l2.998,362.002l324.004,2.998c270,2.002,333.994,0,377.998-12.998
			c97.998-29.004,165.996-115.996,192.002-245c5.996-30,16.992-134.004,25-230c7.998-95.996,20-190,25.996-207.002l12.002-32.998
			h87.998h87.002l-17.998,37.998c-27.002,54.004-46.006,166.006-54.004,317.002c-14.004,275.996-62.002,367.998-224.004,422.002
			c-35.996,12.002-55.996,22.002-45,22.002c12.002,0.996,53.008,16.992,92.002,36.992c81.006,40,126.006,88.008,169.004,180
			c25.996,55,27.998,67.002,27.998,194.004c0,132.002-0.996,136.001-30.996,195C9307.001,2876,9234.999,2946,9165.995,2980
			c-105,50-131.992,52.998-592.998,57.002L8139.999,3041V2220.996z M9062.001,2867.001
			c108.994-54.004,162.002-148.003,162.002-288.003c0-62.998-5-86.997-28.008-131.997c-32.998-69.004-98.994-129.004-175-159.004
			c-53.994-22.002-65.996-22.998-390.996-22.998h-335l-2.998,317.998L8289.999,2901l357.002-3.003l357.998-2.998L9062.001,2867.001z
			"/>
		<path d="M9709.999,2220v-822.002l347.998,5c370,6.006,424.004,12.002,554.004,60c275.996,105,417.998,361.006,417.998,757.002
			c0,393.999-140.996,650-415.996,757.998c-119.004,47.002-181.006,54.004-551.006,59.004l-352.998,5V2220z M10464.999,2876
			c207.998-58.999,317.998-168.003,377.002-371.001c20.996-72.002,22.998-100.996,22.998-285c0-184.004-2.002-212.998-22.998-285
			c-59.004-204.004-170-312.998-377.002-370.996c-47.002-13.008-117.002-18.008-327.002-21.006l-267.998-5V2220v682.002
			l267.998-4.004C10349.999,2893.999,10417.001,2890,10464.999,2876z"/>
		<path d="M12842.997,3027.998c2.002-6.997,137.998-375.996,302.997-820L13444.002,1400h90.996h90l299.004,807.998
			c165,444.004,301.992,813.003,303.994,820c2.998,9.004-17.002,12.002-77.002,12.002h-81.992l-13.008-32.002
			c-7.998-17.998-125-342.998-260.996-722.998c-137.002-379.004-250.996-692.998-254.004-697.002
			c-2.998-3.994-125,321.006-270.996,722.998L13005.995,3040h-83.994C12859.003,3040,12839.003,3037.001,12842.997,3027.998z"/>
		<path d="M14752,3022.998c-7.002-12.998-606.006-1498.994-649.004-1610c-3.994-10,16.006-12.998,79.004-12.998h82.998l99.004,255
			l98.994,255h371.006h370.996l100-255l99.004-255H15487c45.996,0,82.998,2.998,82.998,7.998
			c0,4.004-144.004,372.002-319.004,817.002l-317.998,810l-85.996,2.998C14772.996,3040,14759.998,3037.998,14752,3022.998z
			 M14994.998,2460c80.996-217.002,150-400.996,152.998-407.002c2.998-10-62.998-12.998-312.002-12.998
			c-245.996,0-315.996,2.998-315.996,12.998c0,22.998,314.004,817.002,320,809.004
			C14844.002,2857.998,14912.996,2677.001,14994.998,2460z"/>
		<path d="M15429.998,3000c0-30,0.996-30,55-30h55v-150v-150h40h40v150v150h50c49.004,0,50,1.001,50,30v30h-145h-145V3000z"/>
		<path d="M15779.998,2850v-180h35h34.004l2.998,122.998l2.998,122.002l44.004-122.998c43.994-123.003,43.994-123.003,73.994-120
			c29.004,2.998,32.002,6.997,71.006,122.998l40.996,120l2.998-122.002l2.998-122.998h34.004h35v180v180H16107h-54.004l-40-122.002
			L15974.002,2785l-24.004,70c-12.002,38.999-30.996,93.999-42.002,122.998l-18.994,52.002h-55h-54.004V2850z"/>
	</g>
	<text transform="matrix(1 0 0 1 810.9999 256)" font-family="'MyriadPro-Regular'" font-size="12">vtiger-logo</text>
</g>
<g id="logo">
	<path d="M81.483,130.113L39.847,197.23l2.503,12.969c1.365,7.052,8.418,53.466,15.926,102.834
		c7.507,49.375,14.333,92.145,14.788,95.104c1.138,4.777,2.047,5.004,30.942,5.004h29.577l-1.138-7.279
		c-0.683-4.096-1.821-15.473-2.503-25.252l-1.593-17.521h14.789h14.789l1.821,24.572l2.047,24.342h61.429h61.429l2.049-24.568
		l1.819-24.346h14.789h14.789l-1.593,17.521c-0.682,9.779-1.819,21.156-2.501,25.252l-1.138,7.506l30.259-0.68l30.259-0.686
		l1.364-11.375c2.275-16.836,26.62-175.413,29.35-190.428l2.502-12.969l-20.248-32.535c-11.149-17.974-29.806-48.232-41.635-67.117
		l-21.387-34.809l-100.106,0.228H123.118L81.483,130.113z M191.828,141.261l-1.365,12.513h32.989h32.99l-1.364-12.513l-1.593-12.513
		h26.393h26.391l16.837,33.671c16.608,33.673,16.608,33.673,15.015,47.095c-2.502,19.565-8.874,71.44-12.287,96.694l-2.729,21.613
		h-99.88H123.118l-7.963-65.979l-8.191-65.98l16.836-33.444l16.837-33.671h26.165h26.391L191.828,141.261z"/>
	<path d="M271.914,230.449c-3.868,10.006-1.822,47.547,2.957,52.097c3.413,3.413,3.868,3.413,6.597-1.591
		c3.186-6.141,4.324-40.268,1.367-50.506c-0.911-3.414-3.187-6.146-5.006-6.146C275.779,224.303,273.278,227.035,271.914,230.449z"
		/>
	<path d="M167.483,232.492c-3.185,7.963-2.73,42.775,0.456,49.827c6.142,13.651,12.058,1.595,12.058-25.026
		C179.997,230.902,173.171,217.478,167.483,232.492z"/>
</g>
</svg>
