<?xml version="1.0" encoding="utf-8"?>
<!-- Generator: Adobe Illustrator 16.0.0, SVG Export Plug-In . SVG Version: 6.00 Build 0)  -->
<!DOCTYPE svg PUBLIC "-//W3C//DTD SVG 1.1//EN" "http://www.w3.org/Graphics/SVG/1.1/DTD/svg11.dtd">
<svg version="1.1" xmlns="http://www.w3.org/2000/svg" xmlns:xlink="http://www.w3.org/1999/xlink" x="0px" y="0px" width="866.5px"
	 height="206px" viewBox="-206.5 0 866.5 206" enable-background="new -206.5 0 866.5 206" xml:space="preserve">
<g id="name">
	<g transform="translate(0.000000,206.000000) scale(0.100000,-0.100000)">
		<path d="M725,1915c-216.001-47.002-361.001-177.002-438.999-392.998c-47.002-131.001-60-229.004-60-442.002
			c0-164.004,3.999-210,21.997-290c48.003-209.004,160-367.002,313.003-442.002c118.999-58.994,172.998-70,368.999-75
			c162.998-3.994,182.002-2.998,273.999,21.006c53.999,13.994,128.999,40.996,165,58.994L1435,385.996v415V1215h-280H875v-145V925
			l110-5l110-5l2.998-155.996L1100,602.998l-31.001-7.002C997.998,582.002,842.002,590,787.998,610
			c-153.999,57.002-225.996,235.996-215,530c9.004,250,67.002,370,209.004,436.001C842.998,1603.999,850,1605,1000,1605
			c122.002,0,170-3.999,227.998-18.999c44.004-12.002,75-16.001,80-10c14.004,15,64.004,252.998,58.003,270
			c-8.003,21.001-67.002,42.998-171.001,65C1086.001,1933.999,820,1936.001,725,1915z"/>
		<path d="M2947.002,1867.998c-16.001-11.997-17.002-67.998-15-787.998L2935,305l167.002-2.998L3270,300l2.002,337.002L3275,975
			l227.002,2.998L3730,980l2.002-337.002L3735,305l167.998-2.998L4070,300v783.999c0,738.003-0.996,783.999-17.002,788.003
			c-40,10-282.998,8.999-302.002-2.002c-20-10-20.996-17.998-20.996-295v-285h-230h-230v288.999c0,253.999-2.002,290-15.996,295
			C3222.998,1886.001,2965,1881.001,2947.002,1867.998z"/>
		<path d="M5377.998,1872.998c-17.002-3.999-17.998-50-17.998-788.999V300h125h125l5.996,40
			c6.006,37.002,8.008,39.004,23.008,25.996c27.998-25,141.992-75,198.994-86.992c31.006-6.006,102.998-9.004,161.006-7.002
			c87.998,2.998,115.996,7.998,161.992,30c148.008,67.998,213.008,212.002,225,502.998c16.006,367.002-93.994,561.001-335.996,595
			c-85.996,12.002-182.998,0-275.996-35c-36.006-13.999-68.008-25-70-25c-2.002,0-4.004,118.999-4.004,263.999
			c0,237.002-2.002,265-17.002,270C5665.996,1881.001,5407.001,1880,5377.998,1872.998z M5970,1102.002
			c14.004-10,35.996-40,50-68.003c22.998-46.001,25-58.003,25-203.999c0-137.002-2.998-160-22.002-202.002
			c-28.994-63.994-60-82.002-142.002-82.002c-60.996,0-165,26.006-175,43.008c-3.994,5.996-8.994,400.996-6.992,472.998
			C5700.996,1117.002,5907.998,1147.002,5970,1102.002z"/>
		<path d="M1683.999,1821.001C1620,1792.002,1587.002,1740,1582.002,1665c-3.003-47.998,0-70,16.997-102.002
			C1687.002,1388.999,1950,1453.999,1950,1650C1950,1787.002,1807.002,1878.999,1683.999,1821.001z"/>
		<path d="M2220,1522.002v-159.004L2140,1345c-43.999-10-85-23.999-91.001-31.001c-5-6.997-8.999-55-6.997-115L2045,1095
			l87.002-2.998l86.997-3.003l3.003-286.997L2225,515l27.998-60c47.002-100.996,110-149.004,229.004-175c65-15,235-9.004,285.996,10
			l33.003,12.002l-3.003,122.002L2795,545l-75,0.996c-41.001,1.006-87.002,6.006-102.002,12.002
			C2563.999,580,2561.001,595.996,2560,835c0,120.996-1.001,227.998,0,237.002c0,15,13.999,17.998,117.998,20L2795,1095v135v135
			l-117.002,2.998l-116.997,3.003l-3.003,151.997L2555,1675l-167.002,2.998L2220,1680V1522.002z"/>
		<path d="M1595,1357.998c-2.998-6.997-3.999-246.997-2.998-532.998L1595,305h165h165l2.998,532.998L1930,1370h-165
			C1642.002,1370,1597.998,1367.002,1595,1357.998z"/>
		<path d="M4214.003,1356.001c-3.008-8.003-4.004-198.003-2.002-423.003c2.998-400.996,3.994-408.994,27.002-467.998
			c15.996-40,40-75.996,71.992-107.002c66.006-65,143.008-87.998,288.008-87.998c122.998,0,196.992,15.996,293.994,62.998
			c37.002,19.004,69.004,31.006,72.002,29.004c2.998-2.998,5-16.006,5-27.998c0-13.008,9.004-28.008,20.996-34.004
			c23.008-12.998,176.006-12.002,202.002,2.002c16.006,7.998,17.002,40.996,15,535.996L5205,1365h-165h-165l-2.998-382.002L4870,600
			l-22.998-14.004c-12.002-8.994-51.006-21.992-85-30.996c-76.006-20-132.002-12.998-170,20L4565,597.998l-5,384.004
			c-2.998,210-7.002,383.999-7.998,385.996c-1.006,1.001-76.006,2.002-167.002,2.002
			C4252.001,1370,4217.998,1367.002,4214.003,1356.001z"/>
	</g>
</g>
<g id="logo">
	<g transform="translate(0.000000,512.000000) scale(0.100000,-0.100000)">
		<path d="M-1148.213,4979.985c-210.415-30.059-401.504-136.338-536.767-297.368c-96.616-115.942-157.808-244.766-187.871-395.054
			c-16.099-78.906-16.636-231.343-2.144-308.647c45.088-233.486,177.134-434.238,371.982-564.677
			c74.604-49.912,186.255-100.908,221.68-100.908c8.052,0,19.326,5.361,25.767,12.344c11.27,11.816,11.807,17.715,11.807,101.445
			v89.111l-19.858-4.834c-11.274-2.676-42.407-4.834-69.78-4.834c-57.432,0-100.376,11.27-137.412,37.041
			c-31.133,20.928-45.088,39.717-70.854,93.936c-19.321,41.318-44.551,70.84-101.982,119.697
			c-16.641,14.492-18.784,18.789-13.955,25.234c20.396,24.15,82.124,10.195,124.526-27.92
			c15.029-13.418,36.499-38.115,47.773-54.746c26.841-39.18,59.043-67.1,90.176-77.305c31.67-11.26,86.958-10.195,123.989,1.074
			l28.989,9.131l9.126,34.355c5.366,18.789,17.173,44.551,26.299,57.432c9.131,13.418,16.641,24.697,16.641,25.762
			c0,1.074-13.955,3.223-30.596,4.834c-49.385,5.371-113.257,24.15-162.642,47.764c-35.962,17.188-54.214,30.605-86.416,62.812
			c-68.706,68.711-99.302,149.219-105.205,274.277c-4.297,101.987,15.029,172.847,64.946,237.788l19.321,25.771l-8.584,43.477
			c-11.274,55.825-5.908,119.165,15.029,172.832c5.903,15.034,6.44,15.571,40.259,12.354c40.786-3.76,106.279-29.521,161.562-63.872
			l39.722-24.16l40.791,9.658c100.918,24.16,244.766,24.16,345.679,0l40.796-9.658l20.396,12.886
			c74.077,45.625,152.978,76.758,196.455,76.758c24.16,0,27.378-5.908,40.259-72.461c8.589-45.635,6.978-98.237-3.76-135.801
			c-6.44-19.863-5.898-22.012,13.423-47.236c50.991-66.021,70.312-136.348,65.483-237.798
			c-5.361-125.059-36.499-206.103-105.21-274.814c-32.202-32.207-50.449-45.625-86.411-62.812
			c-47.778-23.076-110.576-41.328-162.642-47.227c-16.641-2.148-30.596-4.834-30.596-5.908s6.44-10.732,13.955-20.391
			c7.515-10.205,18.784-31.133,25.225-46.699c10.737-26.299,11.812-39.717,13.423-186.797
			c1.606-151.904,2.144-158.877,12.881-170.156c16.104-17.178,37.573-15.557,93.398,6.973
			c108.428,43.486,201.826,105.215,286.636,190.029c135.801,136.328,219.536,304.873,244.229,492.744
			c35.42,268.916-53.145,529.248-244.229,720.342c-120.776,120.767-268.389,200.205-437.466,236.172
			C-930.288,4986.963-1073.603,4990.723-1148.213,4979.985z"/>
	</g>
</g>
</svg>
