<?xml version="1.0" encoding="utf-8"?>
<!-- Generator: Adobe Illustrator 16.0.0, SVG Export Plug-In . SVG Version: 6.00 Build 0)  -->
<!DOCTYPE svg PUBLIC "-//W3C//DTD SVG 1.1//EN" "http://www.w3.org/Graphics/SVG/1.1/DTD/svg11.dtd">
<svg version="1.1" id="Layer_1" xmlns="http://www.w3.org/2000/svg" xmlns:xlink="http://www.w3.org/1999/xlink" x="0px" y="0px"
	 width="305.834px" height="129.5px" viewBox="0 0 305.834 129.5" enable-background="new 0 0 305.834 129.5" xml:space="preserve">
<g id="logo">
	<g transform="translate(0.000000,256.000000) scale(0.100000,-0.100000)">
		<path d="M771.001,2543.93C680,2511.928,600,2398.93,600,2302.934v-35l42.998,7.002C757.002,2293.93,850,2400.932,850,2515.932
			C850,2566.928,843.999,2569.936,771.001,2543.93z"/>
		<path d="M343.999,2279.936c-48.999-14.004-125-69.004-161.001-117.002c-91.997-121.006-85-346.001,18.003-541.997
			c42.998-84.004,125-182.012,170-205c40-20.996,108.999-19.004,171.001,5.996c68.999,26.992,147.998,26.992,210.996,0
			c57.002-25,126.001-26.992,166.001-5.996c43.999,21.992,123.003,116.992,175,207.988c41.001,73.008,45.005,83.008,30,92.012
			c-101.997,60.996-153.999,140-153.999,233.999c1.001,73.994,26.001,126.992,85,178.994l47.998,42.998l-31.997,33.008
			c-81.001,83.994-188.999,103.994-325,61.992c-102.002-31.992-102.002-31.992-198.999-0.996
			C467.002,2291.928,398.999,2295.932,343.999,2279.936z"/>
	</g>
</g>
<g id="name">
	<path d="M145.949,28.422c-6.025,1.899-7.265,10.304-2.026,13.694c4.684,3.037,11.314,0.683,12.428-4.405
		c0.305-1.468,0.152-3.44-0.379-4.884C154.628,29.232,149.949,27.183,145.949,28.422z"/>
	<path d="M195.584,28.752c-4.812,0.734-8.403,1.797-11.896,3.568c-7.392,3.671-12.58,8.986-16.226,16.604
		c-3.062,6.403-4.405,12.808-4.405,20.882c0.026,16.4,6.938,29.387,18.983,35.689c9.692,5.061,22.679,5.391,33.03,0.857
		c11.947-5.264,19.363-16.375,21.136-31.738c0.403-3.469,0.203-11.923-0.354-15.035c-1.646-9.111-5.365-16.352-11.187-21.869
		c-4.685-4.429-10.379-7.289-16.983-8.528C205.531,28.776,197.304,28.474,195.584,28.752z M205,40.75
		c7.897,2,13.793,9.744,15.793,20.678c0.685,3.723,0.761,10.48,0.127,14.353c-2.176,13.871-9.974,22.146-20.905,22.174
		c-3.494,0.023-5.949-0.508-8.732-1.896c-4.354-2.152-7.139-5.088-9.619-10.15c-2.479-5.035-3.467-9.771-3.492-16.578
		c0-8.379,1.721-14.984,5.34-20.451c2.557-3.873,6.455-6.834,10.529-8.023C197.457,39.889,201.48,39.838,205,40.75z"/>
	<path d="M264.685,28.854c-14.834,1.468-24.324,10.959-23.592,23.589c0.531,9.163,6.781,15.947,19.033,20.705
		c9.896,3.82,13.211,5.922,15.033,9.518c0.736,1.492,1.113,4.402,0.785,6.15c-0.76,4.1-3.746,6.961-8.605,8.275
		c-2.504,0.684-9.363,0.605-12.832-0.127c-3.342-0.732-6.73-1.873-9.391-3.164c-1.139-0.559-2.127-0.961-2.178-0.91
		c-0.074,0.102-3.188,11.465-3.188,11.67c0,0.275,4.631,2.252,6.707,2.857c11.519,3.342,23.187,2.783,31.767-1.52
		c9.237-4.633,13.819-13.922,12.021-24.299c-0.986-5.619-4.177-10.199-9.593-13.846c-2.961-1.975-4.758-2.858-10.758-5.29
		c-11.414-4.656-14.301-7.213-14.274-12.631c0.024-3.365,1.721-6.049,4.858-7.693c2.33-1.217,4.506-1.672,8.252-1.672
		c4.734,0,9.086,0.86,13.363,2.685c1.113,0.455,2.051,0.835,2.076,0.784c0.023-0.025,0.811-2.607,1.695-5.721l1.67-5.646
		l-1.568-0.709C280.351,29.31,271.944,28.118,264.685,28.854z"/>
	<path d="M141.291,79.957v28.348h7.214h7.213V79.957v-28.35h-7.213h-7.214V79.957z"/>
</g>
</svg>
