<?xml version="1.0" encoding="utf-8"?>
<!-- Generator: Adobe Illustrator 16.0.0, SVG Export Plug-In . SVG Version: 6.00 Build 0)  -->
<!DOCTYPE svg PUBLIC "-//W3C//DTD SVG 1.1//EN" "http://www.w3.org/Graphics/SVG/1.1/DTD/svg11.dtd">
<svg version="1.1" id="Layer_1" xmlns="http://www.w3.org/2000/svg" xmlns:xlink="http://www.w3.org/1999/xlink" x="0px" y="0px"
	 width="1200px" height="242px" viewBox="0 0 1200 242" enable-background="new 0 0 1200 242" xml:space="preserve">
<g transform="translate(0.000000,242.000000) scale(0.100000,-0.100000)">
	<path d="M11299.999,1380V800h85h85v580v580h-85h-85V1380z"/>
	<path d="M3630,1437.998c0-297.998-4.004-528.994-10-567.002c-12.998-77.998-37.998-127.998-87.002-175.996
		C3425.996,590.996,3289.004,575,2975,629.004C2882.002,645,2802.002,655,2798.999,652.002c-3.999-4.004-17.998-32.998-31.997-65
		c-19.004-41.006-23.003-59.004-14.004-62.002c7.002-2.002,93.003-15.996,192.002-32.002c220-33.994,420.996-37.998,524.004-8.994
		c190,51.992,305.996,185.996,331.992,382.998c6.006,47.002,9.004,277.002,7.002,572.998L3805,1935l-87.002,2.998l-87.998,3.003
		V1437.998z"/>
	<path d="M9219.999,1205V470h90h90v735v735h-90h-90V1205z"/>
	<path d="M4465,1476.001c-232.998-37.002-412.998-135-502.002-273.003c-72.998-115-83.994-287.002-25-415.996
		C4010,629.004,4205,510.996,4462.001,470c115-19.004,360.996-7.998,467.998,20c300.996,79.004,465,255,459.004,492.002
		c-3.008,133.994-49.004,232.998-151.006,321.997C5070.996,1450,4752.998,1521.001,4465,1476.001z M4892.001,1332.002
		C5097.998,1270,5215,1135.996,5209.003,969.004c-7.002-209.004-175-346.006-468.008-379.004
		c-183.994-20.996-398.994,22.002-511.992,102.998C4134.003,760,4090.996,835,4082.998,945
		c-15.996,202.998,120,347.002,377.002,401.001C4557.998,1366.001,4805,1357.998,4892.001,1332.002z"/>
	<path d="M6065,1478.999c-162.998-20-354.004-101.997-447.998-192.998c-87.998-83.999-131.006-186.997-129.004-311.001
		c1.006-95.996,7.998-130.996,39.004-195c70-145.996,260.996-262.998,497.998-305.996c94.004-16.006,315.996-19.004,400.996-3.008
		c317.002,57.002,516.005,216.006,543.007,434.004c21.992,180.996-41.006,328.999-183.008,428.999
		C6607.001,1460,6342.998,1512.998,6065,1478.999z M6472.001,1332.002c147.002-44.004,250-122.002,295.996-222.002
		c20-44.004,25-70.996,25-135c0-87.998-18.994-145.996-70-210C6622.001,637.998,6370,562.998,6132.001,590
		c-231.006,25.996-374.004,107.002-440,250c-49.004,105-26.006,269.004,50,350c75.996,81.001,202.002,141.001,342.998,162.998
		c17.002,3.003,95,4.004,175,2.002C6370,1352.998,6420.996,1347.002,6472.001,1332.002z"/>
	<path d="M7452.001,1475c-41.006-7.998-102.998-27.998-139.004-43.999c-35.996-17.002-67.002-31.001-68.994-31.001
		c-2.002,0-4.004,17.998-4.004,40v40h-85h-85V975V470h85h85v342.998c0,389.004,0.996,392.002,80,460
		c75.996,65,135,81.001,290,82.002c117.998,0,142.998-2.998,197.002-23.999c35-13.003,82.998-41.001,107.998-63.003
		c72.002-62.998,75-85,75-470V470h85h84.004l2.998,347.998c2.998,337.998,3.994,347.998,25,389.004
		c27.998,51.997,97.002,105.996,165.996,130c41.006,13.999,82.002,17.998,187.002,17.998
		c115.996-1.001,142.998-3.999,190.996-22.998c83.008-33.003,133.008-73.003,160-129.004c24.004-47.002,24.004-52.998,27.002-390
		L8920.995,470h85h86.006l-4.004,352.998c-3.994,388.003-5,394.004-70.996,482.002c-92.998,125-291.006,193.999-515,181.001
		c-169.004-10-277.002-47.002-375-128.003l-47.998-40l-42.002,34.004c-112.002,91.997-214.004,125.996-392.002,132.998
		C7564.999,1487.998,7499.999,1485,7452.001,1475z"/>
	<path d="M10077.001,1475c-109.004-17.998-240-62.002-312.998-106.001c-71.006-42.998-160-138.999-190-203.999
		c-52.002-112.998-51.006-267.998,0.996-382.998c35-76.006,132.002-167.998,230-219.004C9947.001,490,10085.995,460,10279.999,460
		c215.996,0,395,47.002,537.998,140.996l32.002,21.006v-76.006V470h90h90v505v505h-90h-90v-86.001v-86.001l-30.996,26.001
		c-49.004,41.001-186.006,103.003-279.004,126.001C10427.001,1487.998,10199.999,1495,10077.001,1475z M10479.999,1341.001
		c112.002-26.001,185.996-66.001,255.996-135c83.008-83.003,106.006-143.003,112.002-291.997l4.004-110l-46.006-41.006
		C10660.995,635,10404.999,565,10179.003,590c-173.008,19.004-283.008,64.004-369.004,150c-70,70-94.004,132.998-92.998,240
		c2.002,182.998,137.002,315,372.998,365C10185.995,1365,10387.997,1362.998,10479.999,1341.001z"/>
	<path d="M11302.997,645.996c-87.998-40-60.996-161.992,41.006-180.996c56.992-10.996,120.996,2.998,150,32.002
		c35,33.994,35.996,90.996,1.992,130c-20.996,23.994-31.992,27.998-91.992,30C11359.003,659.004,11324.003,655,11302.997,645.996z"
		/>
</g>
<g transform="translate(0.000000,626.000000) scale(0.100000,-0.100000)">
	<path d="M726.992,5991.997c-50.874-11.89-54.683-12.842-54.683-17.114c0-2.378-5.234-4.287-11.885-4.287
		c-6.66,0-11.89-1.904-11.89-4.751c0-2.378-3.33-4.756-7.129-4.756c-3.804,0-7.134-1.895-7.134-4.751
		c0-2.378-2.378-4.756-5.234-4.756c-6.646,0-61.333-54.683-61.333-61.328c0-2.856-1.895-5.234-4.751-5.234
		c-2.368,0-4.746-4.277-4.746-9.507c0-5.234-1.909-9.512-4.761-9.512c-2.373,0-4.756-4.282-4.756-9.512
		c0-5.234-1.899-9.502-3.799-9.502c-9.038,0-17.598-47.549-17.598-97.48c0-49.912,8.56-97.461,17.598-97.461
		c1.899,0,3.799-4.272,3.799-9.507c0-5.229,2.383-9.502,4.756-9.502c2.852,0,4.761-4.287,4.761-9.521
		c0-9.497,61.807-76.064,70.361-76.064c2.847,0,5.703-1.426,6.655-3.335c2.852-6.65,49.922-29.951,59.907-29.951
		c16.167,0,22.822-12.358,15.693-29.961c-9.038-20.913-12.368-132.168-5.234-164.971c2.856-14.263,6.655-33.286,8.091-41.836
		c1.416-8.555,4.272-16.646,6.646-18.071c2.378-1.426,4.287-6.66,4.287-11.89c0-4.756,2.378-9.033,4.751-9.033
		c2.856,0,4.751-6.182,4.751-14.258c0-7.612,1.899-14.253,3.809-14.253c1.904,0,6.655-7.617,9.98-16.66
		c3.33-9.033,7.607-16.636,9.985-16.636s5.234-3.799,7.129-9.023c1.431-4.761,9.038-15.698,16.641-23.779
		c8.086-8.081,14.268-16.641,14.268-19.023c0-3.33,344.219-350.385,380.835-384.165c6.182-5.225,19.492-19.014,29.478-29.463
		c9.985-10.938,20.918-19.502,24.722-19.502c5.229,0,94.614,86.055,121.719,116.963c4.272,5.215,15.21,15.684,24.243,23.291
		c16.167,14.258,32.334,34.707,32.334,41.377c0,1.416-98.418,101.728-218.711,222.026
		c-170.205,170.215-218.706,221.079-218.706,230.591c0,6.182-2.378,12.368-5.229,13.311c-6.655,2.383-6.655,100.327,0.479,102.69
		c2.373,0.967,4.751,5.708,4.751,10.942s2.856,12.837,6.187,16.646c22.822,27.578,42.314,44.688,61.807,55.62
		c19.966,11.421,27.573,12.842,68.462,12.842c42.319,0,47.544-0.947,73.223-15.22c15.688-8.555,28.047-18.057,28.047-21.387
		s3.33-6.187,7.139-6.187c3.794,0,7.124-1.895,7.124-4.751c0-2.378,2.378-4.756,5.234-4.756
		c6.182,0,180.195,174.492,180.195,180.674c0,7.607-53.252,57.051-61.333,57.051c-2.378,0-5.229,1.899-6.187,3.804
		c-2.373,6.182-63.228,38.984-71.787,38.984c-4.756,0-8.081,2.383-8.081,4.761c0,2.852-5.234,4.751-11.89,4.751
		s-11.885,2.378-11.885,4.756c0,2.856-8.56,4.751-19.019,4.751c-10.464,0-19.019,1.904-19.019,4.277
		c0,1.904-17.588,5.229-38.989,7.612c-48.018,4.277-52.773,4.277-104.595,0c-40.42-3.804-41.841-3.325-41.841,6.182
		c0,5.229-1.904,11.411-4.751,12.842c-2.378,1.416-4.756,6.177-4.756,9.507c0,3.799-5.713,19.019-12.837,33.75
		c-13.789,29.956-79.883,101.748-93.193,101.748c-4.751,0-8.081,2.378-8.081,4.756c0,2.847-3.804,4.751-8.555,4.751
		c-4.756,0-10.464,1.909-12.847,3.804c-8.076,7.129-56.099,19.492-85.576,21.875
		C767.871,5997.695,743.159,5995.795,726.992,5991.997z"/>
	<path d="M2082.016,5993.417c-15.693-2.378-30.425-6.655-32.803-9.033c-2.856-2.373-9.517-4.277-15.693-4.277
		s-10.933-1.895-10.933-4.751c0-2.378-4.282-4.761-9.512-4.761s-9.507-1.904-9.507-4.751c0-2.378-3.33-4.756-7.612-4.756
		c-13.784,0-79.873-71.309-93.667-101.27c-7.119-15.21-12.827-30.43-12.827-34.229c0-3.33-1.909-8.091-4.761-9.507
		c-2.378-1.431-4.751-9.033-4.751-17.124c0-11.885-1.904-13.789-13.784-13.789c-7.607,0-14.746,2.378-15.693,5.708
		c-2.852,7.607-171.162,7.607-174.014,0c-0.952-3.33-10.938-5.708-22.822-5.708c-11.411,0-20.918-1.895-20.918-4.751
		c0-2.378-3.804-4.756-8.56-4.756c-8.555,0-58.008-21.875-62.759-28.047c-1.436-1.431-8.56-6.182-16.641-9.985
		c-7.603-3.809-19.023-11.416-24.248-16.65c-5.713-5.225-17.588-14.731-26.143-21.387
		c-29.004-22.344-427.432-423.638-427.432-430.752c0-8.091,167.358-177.817,175.435-177.817c7.129,0,28.999,21.382,28.999,28.521
		c0,2.373,1.904,4.756,4.756,4.756c3.33,0,107.451,100.317,187.329,180.19c109.824,110.791,159.756,163.086,159.756,166.89
		c0,2.378,1.904,4.751,4.746,4.751c2.378,0,13.799,8.555,24.731,19.492c33.75,32.329,60.381,42.314,110.303,42.314
		c38.984,0,44.692-1.421,68.94-14.736c26.626-15.215,38.506-24.727,38.506-30.908c0-1.426,3.804-6.655,8.555-10.938
		c20.449-17.588,34.233-55.146,34.233-94.136c0-35.186-15.688-76.079-38.032-96.514c-7.607-7.139-14.263-16.641-14.263-20.918
		c0-9.038,168.315-178.765,177.812-178.765c7.612,0,59.912,56.567,59.912,65.132c0,3.33,2.378,6.182,4.751,6.182
		c2.852,0,4.761,3.325,4.761,7.134c0,3.794,2.378,7.124,4.761,7.124c2.842,0,4.746,4.277,4.746,9.033
		c0,5.234,1.909,9.985,3.804,10.947c6.655,2.368,29.478,56.089,29.478,68.452c0,6.187,2.378,11.416,4.761,11.416
		c2.842,0,4.751,9.502,4.751,21.396c0,11.885,2.378,21.392,4.746,21.392c2.856,0,4.761,27.109,4.761,71.313
		c0,44.224-1.904,71.323-4.761,71.323c-2.368,0-4.746,9.033-4.746,20.439v20.444l25.2,6.187
		c24.243,6.182,70.845,28.052,73.687,35.176c0.957,1.909,3.804,3.335,6.66,3.335c2.378,0,19.976,15.215,38.032,33.271
		c18.545,18.55,31.855,33.296,29.956,33.296s0,5.22,4.282,11.875c4.277,6.187,7.607,14.746,7.607,19.023
		c0,3.799,1.904,7.129,3.804,7.129c9.038,0,17.593,47.549,17.593,97.461c0,49.932-8.555,97.48-17.593,97.48
		c-1.899,0-3.804,5.229-3.804,11.88c0,6.66-1.904,11.885-4.761,11.885c-2.373,0-4.751,3.335-4.751,7.134
		c0,3.804-1.904,7.134-4.761,7.134c-2.373,0-4.751,2.378-4.751,5.234c0,6.646-54.678,61.328-61.333,61.328
		c-2.852,0-5.225,2.378-5.225,4.756c0,2.856-4.287,4.751-9.985,4.751c-5.234,0-8.086,2.378-6.655,4.756
		c1.899,2.847-2.378,4.751-9.038,4.751c-6.65,0-12.358,1.909-12.358,3.804c0,4.756-32.329,14.272-68.94,19.971
		C2121.005,5999.604,2121.005,5999.604,2082.016,5993.417z"/>
	<path d="M1564.731,5362.021c-38.994-39.458-72.271-71.313-74.175-71.313c-2.383,0-9.985-8.56-17.114-19.014l-12.837-18.545
		l24.243-23.77c13.32-12.847,24.248-25.679,24.248-28.53s2.383-5.234,4.761-5.234c6.172,0,118.862-113.159,118.862-119.351
		c0-2.354,2.378-4.263,4.751-4.263c6.66,0,47.549-40.889,47.549-47.549c0-2.363,2.378-4.756,4.751-4.756
		c2.852,0,16.646-11.895,30.903-26.143c14.263-14.277,26.152-28.047,26.152-30.898c0-2.383,2.378-4.766,4.751-4.766
		c5.229,0,118.862-111.738,118.862-116.953c0-1.914,3.804-6.65,8.555-10.947c20.449-17.578,34.233-55.146,34.233-94.141
		c0-32.314-16.162-77.012-33.276-91.758c-5.229-4.746-9.512-9.971-9.512-11.416c0-5.215-12.837-17.109-18.54-17.109
		c-2.856,0-5.234-1.895-5.234-4.756c0-2.373-4.277-4.766-9.502-4.766c-5.229,0-9.512-1.885-9.512-4.736
		c0-2.383-5.708-4.756-12.358-4.756c-6.66,0-10.942-1.904-9.038-4.756c1.909-2.852-13.311-4.746-42.314-4.746
		c-27.1,0-45.645,1.895-45.645,4.746s-5.225,4.756-11.88,4.756c-6.665,0-11.89,2.373-11.89,4.756c0,2.852-3.33,4.736-7.603,4.736
		c-4.282,0-14.746,7.627-23.774,16.65c-8.56,9.033-18.55,16.65-21.392,16.65c-6.196,0-180.205-173.545-180.205-179.717
		c0-4.766,35.659-38.994,40.889-38.994c1.904,0,6.655-3.809,10.942-8.086c8.56-9.512,19.487-16.641,42.31-28.525
		c8.086-4.277,15.215-9.502,15.215-11.895c0-1.895,4.282-3.799,9.512-3.799c5.225,0,9.507-1.895,9.507-4.746
		c0-2.373,5.225-4.766,11.885-4.766c6.655,0,11.885-1.895,11.885-4.746c0-2.383,5.225-4.756,11.89-4.756
		c6.655,0,15.684-1.895,20.444-4.287c26.147-13.779,107.93-21.387,157.847-14.727c69.414,9.98,77.026,9.043,84.639-6.66
		c3.789-7.139,7.119-15.684,7.607-19.023c2.378-13.779,8.55-26.621,12.832-26.621c2.373,0,4.272-4.287,4.272-9.521
		c0-5.215,2.383-9.492,4.766-9.492c2.842,0,4.751-2.373,4.751-5.234c0-8.076,64.658-70.85,73.213-70.85
		c4.282,0,7.612-1.895,7.612-4.746c0-2.383,5.225-4.756,11.88-4.756c6.66,0,11.895-1.426,11.895-3.809
		c0-4.268,28.047-13.311,66.084-19.961c40.889-7.139,92.241,0.469,129.795,19.482c4.761,2.393,11.89,4.287,15.693,4.287
		s7.134,2.373,7.134,4.756c0,2.852,3.335,4.746,7.134,4.746c4.282,0,12.354,4.756,18.535,10.469
		c6.187,6.172,18.545,17.588,27.1,26.143c26.636,25.205,37.563,38.516,37.563,46.602c0,3.799,2.378,7.129,4.751,7.129
		c2.856,0,4.761,3.33,4.761,7.129c0,3.809,2.378,7.148,5.703,7.148c2.847,0,3.809,1.416,2.383,2.842
		c-1.431,1.904-0.488,7.607,2.378,12.832c8.076,15.215,17.588,60.391,18.062,83.213c0,28.047-9.985,86.523-14.736,86.523
		c-2.373,0-4.277,3.809-4.277,8.564c0,10.459-10.464,34.219-15.22,34.219c-2.373,0-3.804,3.34-3.804,7.148
		c0,7.129-9.033,19.014-32.334,41.836c-23.765,23.301-34.233,31.855-38.984,31.855c-2.847,0-3.804,2.373-2.378,4.756
		c1.426,2.852-0.469,4.736-4.751,4.736c-4.287,0-12.363,3.34-18.545,7.139c-14.263,9.512-59.429,26.162-70.361,26.162
		c-5.229,0-8.56,3.789-8.56,9.502c0,5.234,2.378,9.502,4.746,9.502c2.856,0,4.761,28.535,4.761,76.084
		c0,47.529-1.904,76.064-4.761,76.064c-2.368,0-4.746,9.512-4.746,21.396s-1.909,21.396-4.751,21.396
		c-2.383,0-4.761,6.182-4.761,13.799c0,8.076-1.904,15.684-4.751,17.1c-2.378,1.426-4.756,7.139-4.756,12.373
		c0,4.746-1.426,9.023-3.33,9.023c-2.383,0-8.091,9.512-13.315,21.406c-5.22,11.875-10.933,21.387-12.837,21.387
		c-2.373,0-3.799,3.818-3.799,8.574c0,4.746-4.277,11.406-9.512,15.215c-5.229,3.779-9.507,8.545-9.507,10.918
		c0,6.191-4.756,11.416-227.266,234.399c-117.91,118.867-217.754,215.854-221.084,215.854
		C1637.939,5433.339,1603.242,5401.01,1564.731,5362.021z"/>
	<path d="M808.764,5017.792c-12.358-11.406-22.349-23.291-22.349-26.152c0-2.832-1.904-5.225-4.756-5.225
		c-2.373,0-4.751-2.842-4.751-5.703c0-3.33-5.234-12.354-11.89-19.971s-11.88-16.65-11.88-20.439c0-3.34-1.904-6.182-4.761-6.182
		c-2.368,0-4.751-4.277-4.751-9.511c0-5.225-1.904-9.512-4.756-9.512c-2.378,0-4.756-4.287-4.756-9.512s-1.895-9.502-4.751-9.502
		c-2.373,0-4.751-6.182-4.751-13.311s-1.909-15.215-4.287-17.598c-2.373-2.852-5.703-10.928-7.129-19.023
		c-1.426-7.598-5.225-26.143-8.081-40.4c-4.756-22.354-3.804-127.891,1.421-158.799c0.957-4.756-1.895-10.459-5.698-12.363
		c-3.799-1.914-20.923-9.99-38.037-18.076c-30.435-14.736-54.204-31.377-73.223-51.816c-27.1-29.473-31.372-34.707-31.372-41.836
		c0-3.809-1.436-7.148-3.33-7.148c-5.234,0-15.693-23.76-15.693-34.219c0-4.756-1.899-8.564-3.804-8.564
		c-5.229,0-15.215-53.721-15.215-79.863c0-21.416,7.607-64.189,14.263-79.414c1.904-5.225,6.655-16.631,10.464-24.717
		c3.32-8.564,7.603-15.693,9.502-15.693c2.378,0,3.813-3.33,3.813-7.129c0-7.607,8.55-18.076,36.606-46.602
		c28.525-28.037,38.984-36.611,46.592-36.611c3.799,0,7.129-1.895,7.129-4.746c0-2.383,3.335-4.756,7.129-4.756
		c3.809,0,10.938-1.895,15.693-4.287c37.09-19.014,87.485-26.621,129.321-19.482c31.382,4.756,63.711,14.727,69.414,20.439
		c1.904,1.904,7.612,3.33,12.368,3.33c4.751,0,8.555,2.373,8.555,4.756c0,2.852,3.33,4.746,7.607,4.746
		c8.086,0,73.218,63.242,73.218,71.338c0,2.373,2.373,4.746,4.756,4.746c2.852,0,4.761,3.33,4.761,7.598
		c0,3.818,3.325,10.469,7.124,14.736c3.809,3.809,6.187,9.043,4.756,11.436c-1.899,2.344-0.947,4.268,1.904,4.268
		s6.182,7.598,8.076,16.631c3.804,21.875,12.368,28.535,26.152,20.928c24.253-12.842,199.214-3.33,199.214,10.928
		c0,1.914,7.607,3.809,16.646,3.809c9.033,0,16.641,2.373,16.641,4.756c0,2.852,4.277,4.746,9.502,4.746
		c5.229,0,9.517,2.393,9.517,4.766c0,2.852,4.272,4.746,9.507,4.746c5.225,0,9.512,1.904,9.512,4.297
		c0,2.363,5.229,5.684,11.88,7.119c6.655,1.895,11.89,4.766,11.89,7.129c0,2.383,6.655,6.66,14.263,9.98
		c8.081,3.34,14.268,7.607,14.268,9.99c0,2.373,2.368,4.287,4.746,4.287c2.856,0,19.497,13.789,36.611,30.889
		c17.119,17.129,33.286,30.908,35.181,30.908c2.383,0,4.282,1.924,4.282,4.268c0,2.393,84.629,88.916,187.808,192.09
		c103.169,103.652,187.798,189.229,187.798,190.674c0,2.363-140.728,143.574-167.832,168.769l-12.358,11.406l-14.268-15.205
		c-7.603-8.076-15.21-14.736-16.641-14.736c-3.804,0-26.626-22.354-26.626-26.152c0-3.33-32.329-35.664-35.654-35.664
		c-3.804,0-26.157-22.344-26.157-26.152c0-3.789-32.329-35.645-35.654-35.645c-5.229,0-16.641-13.311-16.641-19.023
		c0-2.852-1.904-3.809-4.756-2.383c-2.373,1.426-4.756,0.479-4.756-2.373c0-5.234-30.903-38.037-35.654-38.037
		c-3.804,0-16.641-12.842-16.641-16.631c0-4.297-32.334-35.674-36.616-35.674c-2.373,0-8.076-5.703-13.311-12.832
		c-12.832-16.631-43.74-48.965-47.544-48.965c-3.799,0-26.152-22.354-26.152-26.162c0-4.746-23.291-26.152-28.525-26.152
		c-2.852,0-3.799-1.895-2.378-4.746c1.431-2.383,0.483-4.756-2.852-4.756c-2.856,0-13.311-8.555-22.822-19.014
		c-19.966-21.865-38.979-33.281-55.63-33.281c-6.177,0-11.406-1.904-11.406-4.756s-16.636-4.746-40.415-4.746
		c-23.77,0-40.405,1.895-40.405,4.746s-6.66,4.756-14.751,4.756c-8.076,0-13.311,1.904-11.406,4.756
		c1.426,2.852-0.947,4.736-5.234,4.736c-11.401,0-63.706,54.219-63.706,65.615c0,5.244-2.378,10.469-5.229,11.416
		c-7.129,2.383-7.129,105.078,0,107.461c2.852,0.957,5.229,6.182,5.229,11.416c0,5.215,4.756,13.779,10.464,18.525
		c5.229,5.234,8.56,9.043,6.655,9.043c-1.426,0,3.33,6.66,11.406,15.215l14.268,14.736l-90.337,89.853
		c-49.448,48.984-90.811,89.395-91.758,89.395S820.649,5029.199,808.764,5017.792z"/>
</g>
</svg>
