<?xml version="1.0" encoding="utf-8"?>
<!-- Generator: Adobe Illustrator 16.0.0, SVG Export Plug-In . SVG Version: 6.00 Build 0)  -->
<!DOCTYPE svg PUBLIC "-//W3C//DTD SVG 1.1//EN" "http://www.w3.org/Graphics/SVG/1.1/DTD/svg11.dtd">
<svg version="1.1" id="Layer_1" xmlns="http://www.w3.org/2000/svg" xmlns:xlink="http://www.w3.org/1999/xlink" x="0px" y="0px"
	 width="735px" height="202px" viewBox="0 0 735 202" enable-background="new 0 0 735 202" xml:space="preserve">
<g transform="translate(0.000000,202.000000) scale(0.100000,-0.100000)">
	<path d="M3158.418,1777.358c-90.347-16.167-158.818-45.645-231.089-97.002c-157.866-112.222-271.987-358.525-284.351-611.489
		c-10.464-219.668,57.061-343.301,224.434-410.83c51.353-20.928,63.721-21.865,425.098-24.727c296.704-1.904,373.74,0,381.348,9.502
		c7.607,10.459,59.912,194.004,59.912,211.133c0,2.852-28.535,5.693-62.764,5.693c-75.132,0-76.084-25.674,6.65,213.979
		c50.41,147.407,58.965,183.545,63.721,257.725c4.746,102.705-7.607,166.426-48.506,244.404
		c-56.104,106.514-160.723,177.837-299.561,202.563C3303.916,1793.53,3245.913,1793.53,3158.418,1777.358z M3391.416,1512.031
		c52.3-34.238,75.127-86.538,76.079-167.373c0-46.606-13.32-110.317-53.257-256.772c-29.482-107.456-58.965-200.659-63.716-207.309
		c-8.569-10.479-43.75-12.363-162.627-9.521c-176.88,3.809-203.506,12.363-243.452,84.648
		c-63.721,115.068,6.66,421.284,119.824,521.143c60.864,53.252,105.562,67.52,205.415,64.668
		C3341.01,1538.657,3357.173,1534.853,3391.416,1512.031z"/>
	<path d="M6984.267,1649.927c-11.416-14.263-98.906-140.747-193.047-279.595c-94.15-139.795-174.033-253.911-176.885-253.911
		c-3.799,0-9.512,16.167-12.373,36.133c-3.789,19.019-11.406,51.357-16.152,71.323l-9.521,35.19h-136.943
		c-76.074,0-137.881-1.904-137.881-4.756c0-2.847,25.674-94.15,56.104-202.563l57.061-198.76l-22.822-89.385
		c-37.1-143.613-45.654-132.197,103.662-132.197c90.342,0,129.336,3.818,135.986,12.363c4.756,5.713,20.918,56.113,35.186,110.322
		l26.621,99.854l303.359,402.27C7163.056,1477.793,7300,1663.242,7300,1667.993c0,5.708-56.113,9.517-146.465,9.517h-146.436
		L6984.267,1649.927z"/>
	<path d="M5093.681,1538.657c-133.135-35.186-232.041-118.867-290.986-245.356c-48.516-106.514-82.734-256.763-83.691-371.846
		c-0.957-85.576,1.885-100.801,25.664-150.244c34.248-68.467,85.605-105.566,183.545-130.293
		c62.764-16.162,105.566-19.014,304.326-19.014c174.023,0,232.998,2.852,238.701,12.354
		c10.449,16.162,48.496,204.473,42.793,211.123c-2.852,2.852-86.553,4.756-186.406,4.756
		c-284.336,0.947-339.492,15.215-353.76,92.256c-11.406,59.912-13.32,58.945,303.359,61.807l287.207,2.852l18.086,61.816
		c25.654,89.395,27.549,294.805,1.875,342.363c-56.094,105.552-141.689,142.646-329.033,141.694
		C5191.64,1552.925,5124.121,1547.217,5093.681,1538.657z M5296.259,1322.788c37.09-16.177,57.051-49.458,52.305-93.203
		l-2.861-32.334l-163.564-2.847c-112.217-1.904-164.531,0.942-164.531,7.598c0,36.143,52.314,95.107,104.609,117.925
		C5164.062,1337.998,5255.361,1338.95,5296.259,1322.788z"/>
	<path d="M2358.633,1533.906c-12.363-19.976-48.501-194.009-41.841-201.611c2.847-3.809,61.812-5.708,129.326-4.756l122.676,2.852
		l16.177,66.567c9.507,37.09,19.019,84.639,22.817,107.466l5.708,39.941h-123.623
		C2409.033,1544.365,2363.384,1540.561,2358.633,1533.906z"/>
	<path d="M3934.433,1509.179c-5.713-19.966-31.387-140.752-58.965-269.136c-62.773-293.853-67.52-390.844-23.779-478.344
		c31.396-64.668,83.682-103.662,158.818-119.834c66.562-14.268,519.248-14.268,527.802,0
		c10.459,17.129,193.057,886.333,188.301,894.892c-8.564,13.311-220.635,9.512-229.189-3.804
		c-3.799-6.66-39.941-159.771-79.893-340.454l-71.309-328.095l-111.279-2.852c-107.451-2.852-112.207-1.914-135.039,20.928
		c-34.238,35.185-31.386,76.074,28.525,375.639c28.535,142.642,52.305,266.274,52.305,272.935c0,10.459-23.77,13.311-118.867,13.311
		h-117.93L3934.433,1509.179z"/>
	<path d="M5820.253,1536.758c-11.406-6.66-194.004-842.588-194.004-883.486c0-21.865,1.904-21.865,113.164-21.865
		c78.936,0,115.068,3.818,121.738,12.363c4.756,5.713,19.004,58.975,30.42,116.016c67.529,333.808,106.514,516.401,115.068,535.415
		l9.521,20.928h271.982h272.93l-5.693,40.889c-17.119,113.174-51.367,159.766-130.293,176.89
		C6370.878,1545.317,5837.373,1548.169,5820.253,1536.758z"/>
	<path d="M2298.716,1256.216c-10.459-12.368-57.056-210.171-115.068-486.909c-47.549-226.338-74.175-268.184-174.033-272.93
		l-58.013-2.861l-26.631-108.418c-21.865-87.48-24.722-110.312-15.21-116.973c6.655-4.756,68.467-6.65,135.991-4.756
		c103.652,2.852,132.188,6.66,174.033,24.736c76.074,34.229,127.432,102.705,167.368,226.328
		c33.286,101.758,164.531,730.371,155.015,742.729C2528.852,1274.282,2313.93,1273.33,2298.716,1256.216z"/>
</g>
<g transform="translate(0.000000,4096.000000) scale(0.100000,-0.100000)">
	<path d="M983.017,40708.566c-0.615-0.926-10.322-14.391-21.562-29.832c-27.617-38.055-32.183-45.293-42.432-66.414
		c-14.521-30.082-23.359-60.719-27.49-95.441c-1.362-11.254-1.855-43.184-0.928-55.664c9.263-121.633,88.887-237.406,207.93-302.207
		c31.885-17.352,73.945-33.406,99.77-38.105c31.753-5.75,56.704-8.035,87.412-8.035c19.575,0,29.404,0.492,44.175,2.164
		c82.339,9.516,149.922,46.391,200.449,109.34c13.408,16.738,23.418,31.684,37.139,55.719c4.629,8.094,8.701,15.078,9.072,15.516
		c0.317,0.434,0.498,0.852,0.317,1.051c-0.127,0.113-1.797-1.867-3.711-4.527c-9.204-12.598-24.707-29.086-37.129-39.34
		c-62.891-52.082-148.511-67.336-257.236-45.961c-47.373,9.324-90.249,25.57-131.45,49.848
		c-67.705,39.91-123.74,100.387-158.76,171.363c-46.089,93.285-49.429,190.77-9.268,271.57
		C984.253,40709.555,985.303,40712.148,983.017,40708.566z"/>
	<path d="M653.447,40634.133c-1.484-2.168-20.449-29.035-42.192-59.797c-40.034-56.527-45.039-63.824-54.111-79.391
		c-6.304-10.688-17.671-33.41-22.739-45.398c-36.016-84.945-44.727-182.242-25.137-280.406
		c12.534-62.949,35.332-120.711,71.162-180.457c15.083-25.129,42.373-64.422,56.343-81.082c7.046-8.34,56.27-57.703,67.637-67.723
		c64.746-57.219,136.895-100.195,216.216-128.879c16.934-6.102,46.455-15.625,52.817-16.98c10.381-2.266,41.636-6.594,63.936-8.887
		c31.445-3.223,56.714-4.328,91.118-3.898c27.559,0.371,35.029,0.676,55.596,2.59c162.231,15.156,294.673,90.145,381.289,215.906
		c22.91,33.293,44.468,74.891,54.912,105.645l1.113,3.41l-1.357-1.797c-0.747-1.055-4.57-6.176-8.525-11.438
		c-33.359-44.617-76.851-83.086-127.51-112.879c-12.544-7.344-37.681-20-51.274-25.754
		c-51.089-21.668-101.802-34.023-160.918-39.129c-15.815-1.398-68.267-1.555-83.096-0.332
		c-45.952,3.895-84.014,10.555-122.49,21.484c-83.833,23.797-159.326,61.863-227.158,114.488
		c-35.024,27.113-70.791,61.215-99.204,94.562c-80.562,94.465-129.917,206.953-140.112,319.387
		c-1.978,21.504-2.524,53.258-1.289,73.52c3.706,60.719,18.223,117.426,43.184,168.945c4.814,9.953,9.629,19.086,13.647,25.832
		C657.392,40639.191,656.474,40638.398,653.447,40634.133z"/>
	<path d="M246.533,40488.336c-1.357-1.797-25.947-33.051-54.673-69.508c-58.618-74.238-63.257-80.723-81.108-112.91
		c-88.223-159.02-94.087-362.574-16.187-561.234c31.938-81.34,78.081-159.805,135.347-229.805
		c34.78-42.551,74.507-83.098,115.649-117.93c46.763-39.668,95.508-73.566,148.818-103.527c16.982-9.57,52.437-27.488,70.728-35.711
		c36.938-16.633,70.239-28.977,114.595-42.629c23.477-7.227,23.662-7.293,38.911-9.949c45.723-8.039,88.286-12.91,138.999-15.93
		c17.48-0.996,78.271-0.996,95.439,0c62.646,3.781,114.414,11.797,167.847,26.113c101.499,27.141,194.771,76.047,273.296,143.332
		c26.255,22.559,55.845,52.02,78.081,78.074c31.265,36.457,59.004,76.172,82.158,117.402c9.39,16.594,22.93,44.406,27.803,56.828
		l0.923,2.461l-1.665-2.168c-14.268-17.844-21.431-26.125-34.834-40.527c-27.246-29.023-60.117-56.828-95.078-80.254
		c-97.603-65.41-217.012-102.266-353.291-109.023c-16.255-0.793-62.637-0.793-79.756,0c-56.646,2.664-117.427,10.926-170.249,23.172
		c-17.051,3.945-51.641,14.531-75.308,23c-111.382,39.754-212.007,99.012-301.147,177.07c-19.097,16.746-47.632,44.57-65.728,64.023
		c-78.516,84.383-137.27,178.211-175.444,279.965c-68.389,182.543-63.999,373.496,12.295,529.781
		c3.511,7.168,6.294,13.094,6.235,13.094C249.062,40491.547,247.891,40490.062,246.533,40488.336z"/>
</g>
</svg>
