<?xml version="1.0" encoding="utf-8"?>
<!-- Generator: Adobe Illustrator 16.0.0, SVG Export Plug-In . SVG Version: 6.00 Build 0)  -->
<!DOCTYPE svg PUBLIC "-//W3C//DTD SVG 1.1//EN" "http://www.w3.org/Graphics/SVG/1.1/DTD/svg11.dtd">
<svg version="1.1" xmlns="http://www.w3.org/2000/svg" xmlns:xlink="http://www.w3.org/1999/xlink" x="0px" y="0px" width="2517px"
	 height="600px" viewBox="0 31 2517 600" enable-background="new 0 31 2517 600" xml:space="preserve">
<g id="name">
	<g transform="translate(0.000000,741.000000) scale(0.100000,-0.100000)">
		<path d="M18179.998,5927.998c-35-55.996-60-113.999-60-136.997c0-13.999,17.998-18.999,97.998-28.999
			c136.006-17.002,259.004-48.003,310-78.003c34.004-20,50-38.999,71.006-82.998l25.996-56.001V4395
			c0-1204.004-2.002-1257.998-42.998-1330c-27.002-45.996-106.006-82.998-211.006-99.004c-50-6.992-96.992-18.994-105-25.996
			c-21.992-17.998-55.996-115-55.996-159.004v-38.994l587.998-7.002c1012.002-12.998,1206.006,2.002,1541.006,117.002
			c496.992,170,863.994,525,1015.996,982.002c167.998,503.994,105,1098.994-157.998,1490.996
			c-207.002,307.998-491.006,502.998-872.002,598.999c-200,50-187.998,50-1182.998,50l-932.998,1.001L18179.998,5927.998z
			 M19844.998,5711c204.004-38.003,340-92.002,499.004-198.003c281.992-187.998,463.994-478.994,530.996-850
			c35.996-198.994,30-520-15-737.998c-100-485.996-412.002-832.002-830-922.002c-127.002-27.002-409.004-23.994-544.004,5
			c-177.998,37.998-273.994,102.002-317.998,211.006l-22.998,55.996v1190c0,1128.999,0.996,1191.001,17.998,1216.001
			c36.006,52.998,67.998,57.998,347.002,53.999C19685.994,5732.998,19759.002,5727.998,19844.998,5711z"/>
		<path d="M21809.998,5926c-34.004-58.003-55.996-133.999-44.004-145c5-3.999,79.004-18.003,164.004-30
			c225-32.002,280.996-66.001,295-183.999c12.002-94.004-0.996-2356.006-14.004-2422.002c-13.994-74.004-35-104.004-91.992-132.002
			c-51.006-25.996-171.006-52.998-234.004-52.998c-32.002,0-50-5.996-64.004-20.996c-26.992-29.004-62.998-130-58.994-165
			l2.998-29.004l410-7.998c977.998-17.998,1090-15,1330,33.994c422.002,85,772.998,325,909.004,621.006
			c111.992,240.996,106.992,532.998-11.006,750c-35.996,67.002-148.994,187.002-228.994,243.994
			c-78.008,56.006-225,126.006-326.006,155c-42.998,13.008-77.998,26.006-77.998,29.004s20.996,15.996,47.998,29.004
			c154.004,75,296.006,210,362.002,345c52.998,106.992,70,179.995,70,295.996c0,333.999-190.996,577.002-535,678.999
			c-179.004,53.003-200,53.999-1069.004,55l-807.998,1.001L21809.998,5926z M23279.998,5701c237.002-60,387.002-200,435.996-408.003
			c22.002-90,22.002-260,1.006-340c-47.002-177.998-152.998-287.002-322.998-330c-58.008-15-115-17.998-349.004-17.998
			c-154.004,0-287.998,2.998-297.002,7.002c-17.002,7.002-17.998,37.998-17.002,460c0,248.999,4.004,490.996,8.008,536.997
			c10,126.001,5.996,123.999,255.996,118.003C23154.998,5722.998,23212,5717.998,23279.998,5701z M23189.002,4359.003
			c492.998-46.006,760.996-293.008,760.996-701.006c0-295-109.004-492.998-330.996-602.002
			c-128.008-62.998-233.008-80.996-424.004-71.992c-240,10-327.998,40-390,130c-72.002,105.996-69.004,80.996-72.998,688.994
			l-2.998,547.002l22.998,9.004C22784.002,4372.001,23050.994,4372.001,23189.002,4359.003z"/>
		<path d="M11824.999,4934.003c-10.996-2.002-45-9.004-75-15c-135-27.002-312.998-119.004-487.998-251.006
			c-56.006-42.998-105-77.998-107.998-77.998c-3.008,0-4.004,70-2.002,155c3.994,200.996,7.002,197.002-127.002,149.004
			c-125.996-45-365.996-107.002-519.004-133.008c-126.992-21.992-146.992-30-170-62.998c-38.994-55-6.992-95,104.004-132.998
			c99.004-34.004,212.002-90.996,240.996-120.996l24.004-26.006l-0.996-625.996c0-457.002-4.004-642.002-13.008-684.004
			c-20-92.002-52.998-112.998-218.994-140.996c-51.006-9.004-77.002-17.998-84.004-31.006
			c-13.994-23.994-12.002-148.994,2.002-175.996c10.996-20,17.002-22.002,57.998-15.996c99.004,11.992,626.006,16.992,812.002,7.998
			c155-7.998,197.998-7.998,207.998,2.002c19.004,18.994,36.006,145,24.004,176.992c-9.004,24.004-17.002,27.002-79.004,32.002
			c-177.998,15-227.998,44.004-242.998,142.002c-5,32.998-10,322.998-12.002,645c-2.998,542.002-2.002,587.002,14.004,617.002
			c27.998,50,75.996,90,160,132.998c107.998,54.004,203.994,74.004,337.002,67.998c92.998-3.994,115.996-7.998,171.992-35
			c119.004-55.996,191.006-138.994,231.006-265.996c25-81.006,37.002-327.002,37.002-757.002c0-370-6.006-450-40-485.996
			c-27.002-29.004-96.006-51.006-185-60c-38.008-4.004-69.004-13.008-76.006-22.002c-18.994-22.002-17.002-167.998,2.998-187.002
			c13.008-12.998,42.002-12.998,229.004-4.004c134.004,7.002,315.996,8.008,485,3.008c149.004-4.004,287.998-8.008,310-8.008
			c37.002-0.996,40.996,2.002,52.002,34.004c15.996,47.998,17.002,170,0.996,174.004c-7.002,1.992-50.996,10-97.998,18.994
			c-125.996,22.998-197.002,52.002-215.996,90c-14.004,26.006-17.002,109.004-24.004,616.006
			c-9.004,620-10.996,645.996-60.996,800.996c-36.006,110.996-79.004,180-164.004,265.996c-120,120-240.996,176.006-410,188.008
			C11877.001,4935.996,11835.995,4937.001,11824.999,4934.003z"/>
		<path d="M4290.996,4887.998c-90-35.996-375.996-110-530-137.998c-118.994-20.996-155-35.996-165.996-69.004
			c-10-31.992,10.996-57.998,62.002-76.992c197.998-72.002,275.996-113.008,303.994-158.008
			c18.008-28.994,19.004-58.994,18.008-580.996c0-605-7.002-762.002-33.008-812.002C3925,3012.002,3877.001,2987.002,3775,2965
			c-44.004-10-92.998-20.996-110-25c-25-5-30.996-12.002-37.002-45.996c-7.002-41.006-0.996-103.008,11.006-123.008
			c5.996-8.994,70-10,268.994-2.998c161.006,6.006,362.998,6.006,522.998,0c144.004-5,264.004-5.996,267.002-2.998
			s7.998,42.998,10,89.004l4.004,83.994L4614.003,2955c-133.008,22.998-181.006,45.996-205,99.004
			c-17.002,38.994-19.004,77.998-19.004,673.994c0,707.998-4.004,667.998,72.998,720C4595,4539.003,4767.998,4600,4894.003,4600
			c220.996,0,368.994-120,431.992-352.002c25-92.998,37.002-453.994,25-817.998c-13.994-442.002-7.998-429.004-216.992-470.996
			c-60-12.002-112.002-26.006-116.006-33.008c-3.994-5.996-7.998-40-7.998-75.996s4.004-70,7.998-75c4.004-7.002,185-10,530-10
			h522.001l10,35c5.996,19.004,10,55.996,10,82.998c0,55,2.002,54.004-130.996,81.006c-105,21.992-158.008,50-181.006,95.996
			c-17.002,32.002-17.998,82.998-17.998,610c0,327.002-5,605-10,644.004c-12.002,80.996-12.002,81.992,82.002,142.998
			c87.998,57.002,202.998,102.002,305,120c262.998,45,480-97.002,543.994-357.002c11.006-42.998,14.004-170.996,14.004-590
			c0-515-0.996-535.996-20-574.004c-25-48.994-65-70.996-185-98.994L6399.003,2935l2.998-85l2.998-85l45,0.996
			c222.002,6.006,770.996,6.006,870.996-0.996l127.002-7.002l11.006,51.006c5.996,28.994,10.996,70,10.996,90.996
			c0,37.002-2.002,39.004-37.002,45c-82.998,14.004-205,45.996-232.002,60c-15.996,7.998-40,27.998-55,45l-25.996,32.002v555.996
			c0,604.004-4.004,666.006-55.996,821.006C6944.999,4817.998,6609.999,4995,6259.999,4885
			c-145-45.996-324.004-142.998-490.996-265.996c-37.002-27.002-73.008-47.002-80-44.004c-8.008,4.004-30,30.996-49.004,62.002
			c-44.004,70-160,180-227.002,215.996c-65.996,35-190,67.002-262.002,67.002c-165,0-425-110.996-643.994-272.998
			c-59.004-42.998-84.004-56.006-99.004-51.006c-20,6.006-20.996,10-15,146.006c6.006,130.996,0,180-20.996,177.002
			C4367.998,4917.998,4332.001,4905,4290.996,4887.998z"/>
		<path d="M8814.999,4905.996c-519.004-86.992-865-385.996-960.996-830.996c-25-112.002-29.004-310.996-10-442.998
			c82.998-564.004,413.994-877.998,965.996-917.002c230-15.996,570,87.998,760.996,232.998
			c192.002,147.002,316.006,337.998,387.002,601.006c24.004,88.994,26.006,111.992,26.006,305.996
			c0.996,185.996-2.002,220-22.002,297.998c-47.998,189.004-124.004,334.004-241.006,459.004
			c-128.994,137.998-278.994,225-468.994,273.994C9130.995,4917.001,8934.999,4925.996,8814.999,4905.996z M8964.999,4675
			c222.998-57.002,395-232.002,490-499.004c57.998-161.992,70-243.994,69.004-485.996c0-245.996-17.002-347.998-79.004-477.998
			c-122.998-260-432.002-344.004-717.002-195c-202.998,105.996-347.998,333.994-415,652.998c-25.996,122.998-25.996,462.002,0,575
			c49.004,212.002,174.004,369.004,341.006,427.002C8719.999,4694.003,8882.001,4695.996,8964.999,4675z"/>
		<path d="M13977.996,4900c-112.002-22.998-230.996-62.998-335-110c-322.997-149.004-487.997-432.998-452.997-779.004
			c30-291.992,164.004-481.992,414.999-587.998c39.004-15.996,70.996-37.002,72.998-45c5-23.994-30-52.002-187.998-147.998
			c-177.997-109.004-194.999-125-184.999-175.996c20-109.004,119.999-227.002,242.001-285c42.002-20,72.002-40,72.002-49.004
			c0-7.998-48.008-49.004-106.006-90c-234.999-165.996-360.995-292.002-397.997-399.004c-49.004-141.992,20-363.994,159.004-505
			c134.999-137.998,323.993-220.996,562.997-246.992c327.998-35,660.996,47.998,943.994,235.996
			c210,140,358.008,324.004,429.004,535c27.002,80,37.998,259.004,20.996,340c-25,119.004-96.992,232.002-193.994,305
			c-124.004,94.004-267.998,122.998-812.002,164.004c-165,12.998-275.996,25.996-305,35.996c-112.002,40-152.998,149.004-82.002,220
			c42.998,42.998,71.006,52.002,187.002,64.004c204.004,20,372.002,78.994,520.996,181.992
			c227.002,158.008,328.008,336.006,349.004,619.004c5.996,77.998-7.998,215-30.996,299.004l-7.002,23.994l68.994-8.994
			c100-13.008,155-8.008,213.008,16.992c61.992,26.006,92.998,60,120,134.004c20.996,55,27.998,162.002,15,212.002
			c-6.006,22.998-6.006,22.998-44.004-7.002c-75.996-60-144.004-82.998-260.996-87.998c-138.008-6.006-209.004,7.002-404.004,72.998
			C14319.002,4919.003,14154.002,4937.001,13977.996,4900z M14142.996,4692.001c164.004-42.998,287.998-195,327.998-402.998
			c18.008-93.008,16.006-290-3.994-371.006c-22.002-88.994-76.006-193.994-124.004-240c-145-140-420.996-115.996-575,50
			c-98.994,107.998-155,262.002-165,457.002C13584.002,4572.998,13807,4782.001,14142.996,4692.001z M14259.998,2659.004
			c407.998-37.002,590-152.002,607.002-383.008c20-260-167.998-465.996-477.002-521.992c-165-30-405.996-12.002-545.996,40.996
			c-85,32.002-192.002,102.998-245,162.998c-108.008,122.998-137.002,282.998-75,417.998
			c46.992,101.006,198.994,238.008,308.994,276.006C13894.998,2672.998,14077.996,2675.996,14259.998,2659.004z"/>
		<path d="M16504.998,4905.996c-637.998-105.996-1014.004-545-980.996-1145C15545.994,3364.004,15702,3054.004,15967,2880
			c140-92.002,292.002-140.996,495.996-160.996c104.004-9.004,140-9.004,231.006,5c186.992,26.992,416.992,115,550.996,210.996
			c82.998,60,202.998,185,262.998,277.002c165,253.994,222.002,637.998,142.002,955C17597.996,4370,17527,4495.996,17385.994,4635
			c-140.996,139.004-263.994,207.998-456.992,255C16820.994,4917.001,16614.998,4924.003,16504.998,4905.996z M16654.998,4675
			c295-75,505-365,555.996-770.996c15-119.004,6.006-422.002-15-515c-50.996-224.004-155.996-360-323.994-421.006
			c-76.006-27.998-240-30-326.006-3.994c-365,107.998-582.998,518.994-562.998,1060.996c7.002,172.998,29.004,282.002,82.002,390
			c59.004,122.002,160.996,215.996,277.002,255.996C16409.002,4694.003,16570.994,4695.996,16654.998,4675z"/>
	</g>
</g>
<g id="logo">
	<g transform="translate(0.000000,512.000000) scale(0.100000,-0.100000)">
		<path d="M1801,4228.002c-13.003-42.998-48.999-85-267.002-312.002c-285-295-427.998-495-561.001-782.998
			c-148.999-321.001-251.997-780-277.998-1240C677.001,1593.999,767.997,1123.008,906,802.011
			C1032.001,505,1272.997,190.996,1583.998-85l78.999-70L1676-110.996c22.998,74.004,53.999,239.004,68.999,364.004
			c17.998,145.996,18.999,149.004,50,162.988c25,12.012,67.001,3.008,79.003-15.996c2.998-5.996,16.992-75,30.996-152.988
			c35-210,57.998-273.008,119.004-331.016l48.994-46.992l57.002,49.004c115.996,100.996,287.002,295,395.996,450
			c261.006,370.996,414.004,770,455,1184.995c14.004,147.998,6.006,458.999-15.996,605
			c-72.002,468.999-262.998,927.998-555.996,1335C2302.997,3641,2214.002,3746,2057,3911c-141.006,148.003-185,209.004-219.003,300
			c-10.996,31.001-21.997,57.002-22.998,57.002S1807.997,4250.004,1801,4228.002z M1629.999,2100.004
			c0-1372.993-2.002-1572.993-15-1599.009c-17.998-35.996-35-120.996-35-175c0-21.992-3.999-37.988-8.999-35.996
			c-28.003,10-215,242.012-293.999,363.008C1117.997,900,1008.998,1235,964.999,1613.999C946,1777.001,946,1876,964.999,2068.002
			c62.998,627.002,231.001,1087.002,531.001,1455c102.998,127.002,117.998,143.999,126.997,143.999
			C1627.001,3668.002,1629.999,2962.001,1629.999,2100.004z"/>
		<path d="M1816,298.008c-3.003-25-13.003-94.004-22.002-154.004c-7.998-59.004-28.999-161.992-45-226.992l-30-119.004l20-63.008
			c27.002-89.004,41.001-195.996,48.999-371.992l7.002-150l65-22.012l65-21.992l2.002,86.992
			c5,172.012,23.994,448.008,33.994,487.012c6.006,21.992,18.008,55,27.002,74.004c15,32.988,15,33.984-10.996,52.988
			c-59.004,43.008-99.004,150-136.005,363.008C1823.998,337.011,1822.001,340.996,1816,298.008z"/>
	</g>
</g>
</svg>
