<?xml version="1.0" standalone="no"?>
<!DOCTYPE svg PUBLIC "-//W3C//DTD SVG 20010904//EN"
 "http://www.w3.org/TR/2001/REC-SVG-20010904/DTD/svg10.dtd">
<svg version="1.0" xmlns="http://www.w3.org/2000/svg"
 width="400.000000pt" height="120.000000pt" viewBox="0 0 400.000000 120.000000"
 preserveAspectRatio="xMidYMid meet">
<metadata>
Created by potrace 1.11, written by Peter Selinger 2001-2013
</metadata>
<g transform="translate(0.000000,120.000000) scale(0.100000,-0.100000)"
fill="#000000" stroke="none">
<path d="M2010 896 c0 -115 -4 -197 -10 -201 -5 -3 -28 4 -50 15 l-41 21 -132
-77 c-73 -42 -135 -81 -139 -88 -5 -6 -7 -81 -5 -166 l2 -154 135 -78 c74 -43
139 -78 145 -77 5 0 69 35 140 77 l130 77 0 380 0 379 -75 43 c-41 23 -81 42
-87 43 -10 0 -13 -45 -13 -194z m-49 -408 c38 -21 39 -23 39 -79 l0 -57 -45
-26 -46 -25 -44 27 c-45 27 -45 27 -45 82 0 53 2 56 38 77 47 28 55 28 103 1z"/>
<path d="M3370 727 c-52 -27 -196 -111 -222 -129 l-28 -19 0 -164 0 -165 53
-30 c80 -46 137 -37 152 23 3 12 4 83 3 157 -3 127 -4 135 -23 135 -19 0 -20
-8 -23 -148 -3 -170 -6 -176 -78 -136 l-44 24 0 141 0 142 115 66 c63 36 120
66 126 66 7 0 63 -30 126 -66 l113 -66 0 -141 0 -142 -119 -68 -118 -68 -36
17 c-27 13 -42 15 -58 8 -21 -10 -20 -12 24 -37 25 -15 55 -27 67 -27 34 0
271 141 281 168 5 13 9 84 9 158 0 127 -1 136 -22 157 -23 23 -250 157 -265
157 -4 0 -19 -6 -33 -13z"/>
<path d="M268 653 l-128 -75 0 -207 c0 -114 2 -210 5 -213 3 -3 44 17 90 45
l85 50 0 96 c0 108 7 125 63 155 35 18 36 18 79 -5 l43 -24 5 -110 5 -110 85
-51 c56 -33 88 -47 92 -40 10 14 10 398 0 412 -13 19 -257 154 -277 153 -11 0
-77 -35 -147 -76z"/>
<path d="M1017 653 l-127 -75 2 -165 3 -165 127 -74 c70 -41 136 -74 145 -74
10 1 74 34 143 74 l125 74 3 165 2 165 -130 76 c-72 42 -139 76 -148 75 -9 -1
-74 -35 -145 -76z"/>
<path d="M2512 654 l-132 -77 2 -165 3 -166 125 -72 c69 -40 131 -73 139 -73
25 -1 171 84 169 98 -2 7 -59 46 -128 85 l-125 72 -3 56 -3 56 47 26 48 27 45
-29 c43 -26 46 -31 49 -75 2 -26 6 -47 10 -47 4 1 43 22 87 48 l80 48 3 55 3
54 -126 74 c-69 40 -133 75 -143 77 -9 2 -77 -30 -150 -72z"/>
<path d="M3388 520 c-21 -16 -28 -30 -28 -55 0 -42 14 -53 86 -66 90 -16 96
-18 92 -42 -3 -20 -10 -22 -65 -25 -59 -3 -64 -1 -75 23 -13 29 -48 34 -48 7
0 -73 143 -107 215 -50 28 21 33 63 13 91 -8 10 -44 23 -88 33 -41 8 -79 19
-84 24 -18 18 15 40 59 40 35 0 48 -5 63 -25 11 -14 27 -25 36 -25 22 0 20 32
-3 61 -15 19 -30 24 -82 27 -54 3 -68 1 -91 -18z"/>
</g>
</svg>
