<?xml version="1.0" encoding="utf-8"?>
<!-- Generator: Adobe Illustrator 16.0.0, SVG Export Plug-In . SVG Version: 6.00 Build 0)  -->
<!DOCTYPE svg PUBLIC "-//W3C//DTD SVG 1.1//EN" "http://www.w3.org/Graphics/SVG/1.1/DTD/svg11.dtd">
<svg version="1.1" id="Layer_1" xmlns="http://www.w3.org/2000/svg" xmlns:xlink="http://www.w3.org/1999/xlink" x="0px" y="0px"
	 width="1109.868px" height="308px" viewBox="-636.868 0 1109.868 308" enable-background="new -636.868 0 1109.868 308"
	 xml:space="preserve">
<g id="logo">
	<g transform="translate(0.000000,308.000000) scale(0.100000,-0.100000)">
		<path d="M2600,3032.998c-358.999-37.998-722.002-260-907.998-555.996c-41.001-65-23.003-61.001-167.002-36.001
			c-121.001,21.997-311.001-8.003-427.998-67.002c-210-106.001-365-303.999-410-523.999L675,1788.999l-80-31.997
			C430,1690,287.998,1575,191.001,1430c-340-507.998-73.999-1192.002,521.001-1340.996C785,70.996,842.002,67.002,1175,60
			c737.002-17.002,2007.001-22.998,2310-10.996c319.004,11.992,384.004,20,495,56.992c442.998,151.006,729.004,565,707.002,1024.004
			c-20,417.998-282.998,776.001-679.004,925c-45.996,17.002-45.996,17.002-72.998,102.002c-77.998,251.997-237.002,475.996-450,635
			c-95,70.996-290.996,168.999-395,197.998C2937.998,3032.002,2745.996,3048.999,2600,3032.998z"/>
	</g>
</g>
<g id="name">
	<g>
		<path d="M-505.951,92.251c-1.641-2.068-2.375-2.881-4.554-5.029c-4.897-4.833-11.716-9.025-18.131-11.145
			c-3.258-1.079-5.999-1.65-9.987-2.075c-0.99-0.104-4.816-0.117-37.928-0.141l-36.82-0.02l0.015,86.882l0.023,86.886l2.439,0.006
			h2.435v-34.131v-34.139l35.463-0.021c38.348-0.03,35.611,0,38.427-0.38c4.547-0.617,8.87-1.966,12.919-4.021
			c2.551-1.299,5.308-3.015,7.332-4.56c4.956-3.788,8.961-8.264,12.384-13.842c0.364-0.604,0.668-1.107,0.668-1.123
			c0-0.014,0.139-0.262,0.315-0.557c1.18-2.002,2.697-5.342,3.804-8.379c4.079-11.159,4.592-23.602,1.416-34.46
			C-497.872,104.698-501.238,98.19-505.951,92.251z M-498.759,130.589c-0.556,6.284-1.979,11.87-4.486,17.631
			c-0.47,1.071-1.68,3.504-1.775,3.564c-0.036,0.023-0.066,0.067-0.066,0.097c0.022,0.146-1.496,2.742-2.353,4.026
			c-3.483,5.212-7.14,8.923-11.973,12.125c-2.221,1.474-4.737,2.808-6.966,3.703c-2.779,1.117-5.946,1.936-8.995,2.325
			c-2.692,0.352-1.102,0.336-38.111,0.336h-34.938l-0.021-47.788l-0.015-47.784h33.859c22.656,0,34.19,0.021,34.848,0.073
			c7.055,0.542,13.316,2.815,19.753,7.17c1.922,1.298,3.798,2.764,5.36,4.201c1.556,1.424,3.969,3.991,5.083,5.418
			c0.207,0.264,0.424,0.541,0.492,0.623c1.956,2.463,3.987,5.749,5.526,8.931c2.719,5.631,4.158,10.822,4.78,17.246
			C-498.635,123.778-498.635,129.182-498.759,130.589z"/>
		<path d="M-263.088,232.658c1.664,1.472,3.426,2.881,5.947,4.728c0.857,0.63,4.062,2.714,5.03,3.278
			c0.374,0.222,1.078,0.63,1.562,0.908c2.104,1.233,5.637,3.006,7.664,3.858c6.207,2.601,12.565,4.002,20.6,4.538
			c1.798,0.115,7.077,0.115,8.799,0c6.319-0.44,12.377-1.533,17.56-3.183c1.67-0.529,4.617-1.651,5.644-2.148
			c0.126-0.06,0.733-0.345,1.356-0.646c1.167-0.55,3.154-1.62,3.858-2.068c0.218-0.14,0.411-0.257,0.425-0.257
			c0.015,0,0.424-0.265,0.916-0.586c5.278-3.483,9.921-8.938,11.951-14.063c1.796-4.538,2.47-10,1.914-15.557
			c-0.27-2.633-0.931-5.392-1.848-7.7c-1.818-4.569-5.601-9.232-10.139-12.501c-0.323-0.237-0.58-0.456-0.565-0.492
			c0.007-0.037-0.015-0.052-0.05-0.029c-0.038,0.023-0.369-0.152-0.736-0.396c-1.947-1.284-5.219-2.927-7.85-3.938
			c-0.838-0.319-3.005-1.038-4.144-1.375c-6.519-1.906-15.559-3.037-24.379-3.043c-4.23,0-10.072-0.617-14.325-1.512
			c-6.527-1.371-12.493-4.075-16.429-7.456c-0.28-0.249-0.508-0.478-0.494-0.514c0.008-0.029-0.006-0.043-0.041-0.021
			c-0.073,0.042-1.805-1.696-2.442-2.449c-1.604-1.892-3.086-4.262-3.916-6.27c-0.924-2.215-1.546-4.868-1.848-7.771
			c-0.154-1.496-0.168-5.186-0.034-6.488c0.423-4.084,1.51-7.391,3.362-10.302c0.674-1.056,1.035-1.54,1.129-1.519
			c0.043,0.007,0.058-0.013,0.031-0.057c-0.043-0.075,0.073-0.244,0.8-1.138c1.033-1.282,3.681-3.851,3.854-3.739
			c0.046,0.03,0.066,0.006,0.06-0.044c-0.043-0.198,2.258-1.825,4.055-2.86c3.813-2.198,8.095-3.769,13.125-4.833
			c5.242-1.104,10.625-1.583,15.798-1.392c4.613,0.163,8.754,0.58,11.879,1.211c3.378,0.673,6.885,1.802,9.588,3.079
			c2.363,1.112,5.177,2.902,6.934,4.399c1.222,1.033,2.702,2.654,3.62,3.938c0.387,0.542,1.275,1.95,1.479,2.361
			c0.082,0.156,0.181,0.293,0.236,0.316c0.042,0.015,0.952-0.353,2.013-0.82c1.062-0.477,2.038-0.911,2.17-0.969
			c0.25-0.104,0.25-0.104,0.125-0.299c-0.491-0.778-2.097-2.818-3.219-4.084c-1.193-1.356-3.123-3.257-4.384-4.31
			c-0.262-0.222-0.469-0.427-0.454-0.451c0.015-0.021,0.006-0.03-0.017-0.006c-0.029,0.014-0.321-0.188-0.66-0.46
			c-1.84-1.49-4.611-3.258-6.898-4.407c-1.268-0.633-2.771-1.238-4.348-1.768c-4.186-1.384-8.518-2.148-14.661-2.567
			c-1.499-0.103-7.816-0.154-9.166-0.072c-8.982,0.549-16.804,2.454-23.193,5.652c-0.473,0.242-0.9,0.417-0.946,0.387
			c-0.044-0.03-0.058-0.023-0.034,0.023c0.028,0.043-0.368,0.308-0.928,0.616c-1.223,0.672-3.02,1.848-4.26,2.778
			c-3.922,2.947-7.706,7.413-9.466,11.181c-1.891,4.033-2.675,7.896-2.675,13.141c0,4.508,0.55,8.176,1.775,11.863
			c1.606,4.837,5.338,10.053,9.429,13.182c0.366,0.285,0.674,0.55,0.674,0.579c0,0.028,0.036,0.057,0.079,0.057
			c0.037,0,0.31,0.177,0.603,0.392c2.243,1.659,6.354,3.729,9.58,4.852c0.427,0.146,0.954,0.324,1.176,0.402
			c0.695,0.242,2.109,0.636,3.48,0.98c5.684,1.417,12.339,2.164,19.393,2.173c4.399,0.005,10.175,0.489,14.921,1.253
			c4.501,0.725,8.621,1.936,12.756,3.754c0.704,0.307,2.573,1.283,3.337,1.737c3.571,2.142,6.621,5,8.762,8.214
			c1.871,2.808,2.969,6.092,3.427,10.189c0.122,1.137,0.122,5.222,0,6.233c-0.405,3.252-1.107,5.712-2.326,8.138
			c-1.292,2.561-3.486,5.373-6.042,7.734c-1.305,1.195-3.694,2.971-5.065,3.762c-0.139,0.079-0.549,0.316-0.915,0.53
			c-1.966,1.144-4.935,2.471-7.568,3.37c-4.07,1.407-9.496,2.502-14.723,2.965c-4.576,0.409-9.692,0.357-13.783-0.15
			c-9.73-1.188-18.294-4.367-26.996-10.02c-0.378-0.244-0.663-0.469-0.631-0.517c0.02-0.042,0.005-0.05-0.038-0.021
			c-0.042,0.021-0.528-0.271-1.078-0.669c-0.548-0.395-1.078-0.768-1.161-0.827c-1.01-0.682-4.499-3.49-5.659-4.555
			c-1.357-1.247-1.45-1.319-1.57-1.218c-1.422,1.218-3.526,3.08-3.526,3.123C-265.836,230.09-264.21,231.66-263.088,232.658z"/>
		<path d="M-374.681,242.357c-0.467-0.218-0.917-0.741-1.246-1.443c-0.316-0.667-0.66-1.651-0.874-2.516
			c-0.104-0.411-0.117-4.128-0.117-36.146c0-22.788-0.029-36.291-0.073-37.346c-0.249-5.538-1.005-10.245-2.418-14.998
			c-0.888-2.998-1.753-5.195-3.086-7.881c-2.902-5.828-6.942-10.709-11.979-14.518c-0.984-0.74-3.037-2.103-4.032-2.676
			c-6.182-3.558-12.121-5.342-19.981-6.013c-1.605-0.14-6.738-0.206-8.211-0.108c-7.038,0.469-13.257,2.008-19.906,4.934
			c-6.657,2.917-13.726,6.812-19.861,10.916c-0.433,0.291-0.86,0.589-0.934,0.646c-0.123,0.104-0.057,0.212,1.299,2.017
			c0.793,1.048,1.458,1.927,1.489,1.963c0.029,0.028,0.303-0.117,0.6-0.321c1.782-1.239,4.129-2.78,5.772-3.777
			c10.645-6.497,21.034-10.368,30.292-11.285c3.63-0.357,7.892-0.263,11.623,0.258c6.326,0.884,12.091,3.116,17.135,6.621
			c0.595,0.408,1.173,0.826,1.283,0.93c0.117,0.102,0.329,0.262,0.467,0.358c0.603,0.434,2.744,2.348,3.586,3.212
			c1.187,1.225,2.353,2.59,2.296,2.684c-0.022,0.038-0.007,0.052,0.035,0.032c0.086-0.06,1.269,1.487,2.192,2.881
			c4.435,6.677,6.9,14.583,7.355,23.61c0.05,1.003,0.071,4.484,0.06,9.572l-0.023,8.001l-0.99-0.36
			c-2.867-1.054-7.706-2.421-13.599-3.836c-8.087-1.937-16.549-2.82-27.063-2.82c-5.133,0-8.337,0.211-12.75,0.849
			c-7.148,1.025-12.485,2.437-17.815,4.697c-7.216,3.074-12.45,6.96-16.842,12.488c-2.382,3.013-3.981,6.298-4.896,10.08
			c-1.614,6.65-1.093,14.576,1.372,21.117c0.706,1.863,1.973,4.553,2.719,5.776c0.17,0.272,0.309,0.514,0.309,0.533
			c0,0.059,1.489,2.325,1.929,2.928c2.669,3.672,6.137,7.01,9.839,9.473c5.182,3.444,11.181,5.77,17.288,6.694
			c4.869,0.739,11.049,0.646,17.538-0.264c8.027-1.122,16.644-3.726,23.352-7.068c7.523-3.738,13.674-8.72,19.238-15.567
			l0.411-0.506v5.97c0,6.123,0.031,7.017,0.293,8.227c0.609,2.808,2.494,5.265,4.883,6.387c0.917,0.434,2.039,0.727,3.103,0.813
			l0.595,0.05v-2.47v-2.465h-0.278C-373.633,242.693-374.342,242.518-374.681,242.357z M-381.924,200.857l-0.023,13.427
			l-0.184,0.842c-0.482,2.137-1.29,4.077-2.581,6.21c-0.504,0.837-1.958,3.012-2.315,3.482c-0.147,0.191-0.45,0.58-0.67,0.875
			c-0.893,1.172-1.634,2.01-3.093,3.46c-0.955,0.953-1.556,1.512-1.605,1.474c-0.053-0.029-0.068-0.021-0.044,0.023
			c0.065,0.103-0.212,0.344-0.323,0.271c-0.05-0.03-0.074-0.023-0.045,0.029c0.045,0.063-0.636,0.682-1.275,1.157
			c-0.108,0.073-0.578,0.426-1.041,0.778c-3.52,2.661-7.83,5.067-12.295,6.863c-7.479,3.005-15.683,4.779-24.452,5.293
			c-1.628,0.094-5.462,0.094-6.716,0c-4.009-0.309-7.926-1.226-11.613-2.714c-1.27-0.506-3.806-1.759-4.986-2.455
			c-4.633-2.74-8.426-6.284-11.263-10.522c-3.857-5.769-5.558-11.739-5.396-18.915c0.088-3.805,0.675-6.724,1.958-9.714
			c1.826-4.27,5.683-8.616,10.617-11.978c3.489-2.376,8.718-4.71,13.724-6.124c4.861-1.372,11.519-2.391,17.487-2.677
			c2.684-0.132,7.875-0.066,11.329,0.141c11.201,0.672,20.808,2.44,29.621,5.455c1.724,0.595,3.087,1.085,3.996,1.438
			c0.322,0.121,0.728,0.277,0.902,0.344l0.307,0.109L-381.924,200.857z"/>
		<path d="M-137.066,219.487c0.655,1.087,2.449,3.838,2.977,4.548c0.156,0.197,0.521,0.696,0.82,1.098
			c1.336,1.81,3.498,4.391,4.769,5.719c0.387,0.403,0.792,0.837,0.9,0.968c0.111,0.125,0.748,0.756,1.422,1.394
			c0.676,0.637,1.219,1.186,1.202,1.217c-0.006,0.034,0.017,0.045,0.052,0.021c0.036-0.021,0.111,0.017,0.161,0.083
			c0.318,0.381,2.808,2.463,4.396,3.658c4.312,3.263,9.427,6.187,14.039,8.019c5.406,2.15,10.441,3.287,16.608,3.756
			c1.57,0.117,6.166,0.117,7.625,0c6.846-0.558,13.234-2.053,19.354-4.538c5.31-2.156,9.883-4.775,13.86-7.94
			c5.542-4.416,9.75-9.577,12.469-15.296c0.543-1.146,1.094-2.487,1.028-2.507c-0.033-0.01-1.042-0.277-2.251-0.594
			c-1.203-0.316-2.229-0.589-2.275-0.602c-0.043-0.017-0.396,0.58-0.776,1.326c-0.382,0.747-0.828,1.575-0.997,1.854
			c-0.171,0.272-0.31,0.506-0.31,0.529c0,0.116-1.589,2.479-2.361,3.496c-3.358,4.458-8.204,8.66-13.734,11.902
			c-1.245,0.733-4.076,2.186-5.276,2.705c-5.911,2.576-11.908,4.115-18.221,4.68c-1.408,0.124-7.224,0.124-8.58,0
			c-8.183-0.756-14.861-2.919-21.776-7.037c-1.52-0.904-4.406-2.849-5.154-3.463c-0.053-0.043-0.338-0.256-0.638-0.484
			c-0.763-0.571-1.593-1.267-3.19-2.667c-0.154-0.141-0.571-0.521-0.917-0.844c-0.343-0.331-0.747-0.703-0.909-0.844
			c-0.233-0.221-1.01-1.033-2.639-2.785c-1.914-2.062-4.517-5.492-6.356-8.396c-3.242-5.096-5.917-10.976-7.684-16.862
			c-1.283-4.295-2.224-9.435-2.545-13.915l-0.051-0.712h58.122h58.111v-1.745c0-9.43-1.942-19.137-5.571-27.839
			c-2.437-5.844-5.376-10.888-9.269-15.911c-0.125-0.154-0.434-0.537-0.68-0.834c-0.25-0.303-0.435-0.581-0.411-0.616
			c0.021-0.044,0.007-0.051-0.03-0.031c-0.083,0.051-0.515-0.454-0.475-0.555c0.006-0.032-0.008-0.043-0.046-0.036
			c-0.028,0.013-0.416-0.388-0.857-0.896c-1.158-1.31-2.911-3.091-4.141-4.207c-1.079-0.974-2.785-2.449-3.151-2.719
			c-0.111-0.081-0.793-0.595-1.514-1.138c-2.806-2.117-5.988-4.074-9.429-5.8c-6.759-3.386-13.835-5.278-21.907-5.857
			c-1.488-0.11-6.629-0.154-8.028-0.073c-5.409,0.321-10.765,1.39-15.25,3.073c-2.938,1.091-4.566,1.861-7.845,3.672
			c-1.099,0.606-3.167,1.904-4.24,2.652c-0.395,0.28-0.751,0.477-0.798,0.454c-0.044-0.028-0.06-0.021-0.037,0.025
			c0.03,0.041-0.042,0.139-0.154,0.203c-0.413,0.265-2.78,2.096-3.496,2.714c-1.884,1.606-3.624,3.242-5,4.722
			c-1.116,1.188-3.051,3.433-3.632,4.211c-0.161,0.202-0.32,0.373-0.366,0.357c-0.035-0.01-0.048,0.007-0.03,0.043
			c0.015,0.03-0.152,0.308-0.382,0.607c-0.974,1.26-2.44,3.395-3.422,4.979c-3.272,5.264-5.94,11.227-7.773,17.342
			c-1.994,6.664-2.968,12.736-3.234,20.018c-0.103,3.02,0.293,8.086,0.931,11.766C-144.597,203.805-141.517,212.047-137.066,219.487
			z M-142,181.662c0-0.601,0.229-3.15,0.411-4.663c0.762-6.246,2.468-12.689,4.927-18.62c3.116-7.523,7.618-14.349,13.029-19.759
			c1.54-1.533,2.341-2.251,2.421-2.179c0.034,0.033,0.034,0.017,0.015-0.03c-0.064-0.107,0.212-0.351,0.319-0.277
			c0.053,0.029,0.076,0.022,0.038-0.03c-0.111-0.182,3.878-3.263,6.005-4.62c0.872-0.558,2.889-1.774,2.94-1.774
			c0.021,0,0.13-0.058,0.232-0.131c0.273-0.192,1.343-0.763,2.399-1.283c5.705-2.832,11.862-4.348,18.879-4.672
			c1.52-0.066,4.56-0.03,6.343,0.079c8.636,0.53,16.628,2.928,23.827,7.153c0.896,0.526,0.823,0.48,1.792,1.091
			c7.215,4.51,13.456,11.056,18.189,19.063c4.787,8.102,7.802,17.179,8.871,26.672c0.156,1.372,0.368,3.739,0.368,4.093v0.213
			h-55.504H-142V181.662z"/>
		<path d="M-315.352,137.256c0.053-0.037,0.449-0.354,0.88-0.699c0.441-0.334,0.843-0.667,0.901-0.715
			c0.301-0.275,2.523-1.798,3.556-2.442c1.914-1.195,4.334-2.495,6.086-3.264c0.361-0.162,0.794-0.354,0.954-0.423
			c1.649-0.749,4.917-1.879,7.03-2.421c3.035-0.778,6.546-1.366,9.613-1.606c0.528-0.044,1.225-0.098,1.56-0.124l0.603-0.042v-2.45
			v-2.449h-1.172c-1.9,0-4.546,0.19-6.747,0.485c-8.63,1.149-16.065,4.149-22.767,9.179c-1.136,0.858-2.3,1.788-3.066,2.471
			c-0.278,0.242-0.533,0.434-0.571,0.417c-0.035-0.007-0.058,0.008-0.051,0.036c0.017,0.036-0.372,0.423-0.857,0.88
			c-2.676,2.485-5.467,5.593-7.515,8.343c-0.177,0.244-0.358,0.476-0.402,0.528c-0.037,0.041-0.368,0.513-0.734,1.033
			c-0.359,0.526-0.69,0.939-0.727,0.918c-0.036-0.03-0.042-0.011-0.013,0.035c0.023,0.035-0.132,0.335-0.354,0.652
			c-1.136,1.656-2.772,4.426-3.916,6.619c-0.264,0.508-0.508,0.945-0.532,0.99c-0.04,0.035-0.066-7.258-0.066-16.263v-16.328h-2.457
			h-2.456v63.494v63.497h2.456h2.457v-40.079v-40.076l0.226-0.782c1.225-4.21,2.609-7.838,4.4-11.519
			c2.931-6.021,6.077-10.529,10.33-14.819C-317.61,139.229-316.149,137.885-315.352,137.256z"/>
	</g>
</g>
</svg>
