<?xml version="1.0" encoding="utf-8"?>
<!-- Generator: Adobe Illustrator 16.0.0, SVG Export Plug-In . SVG Version: 6.00 Build 0)  -->
<!DOCTYPE svg PUBLIC "-//W3C//DTD SVG 1.1//EN" "http://www.w3.org/Graphics/SVG/1.1/DTD/svg11.dtd">
<svg version="1.1" xmlns="http://www.w3.org/2000/svg" xmlns:xlink="http://www.w3.org/1999/xlink" x="0px" y="0px" width="2319px"
	 height="966px" viewBox="0 0 2319 966" enable-background="new 0 0 2319 966" xml:space="preserve">
<g id="logo">
	<g transform="translate(0.000000,205.000000) scale(0.100000,-0.100000)">
		<path fill="#333333" d="M3091.591,272.754c-81.24-33.003-261.519-223.433-279.292-294.531
			c-7.617-33.008-25.396-60.938-38.091-60.938c-10.151,0-27.93-43.164-38.086-93.95c-10.151-53.306-30.459-104.087-45.693-114.253
			c-35.547-22.852-35.547-550.972,2.534-573.818c12.7-10.166,35.547-45.708,45.698-81.25
			c10.156-35.547,63.477-106.646,114.263-157.432c91.406-91.387,104.097-96.475,253.901-96.475
			c134.565,0,175.195,10.156,251.377,68.555c147.266,111.719,261.519,251.367,294.521,363.086
			c10.161,35.542,27.925,68.555,38.086,76.167c12.695,7.617,32.998,99.028,48.247,205.669
			c50.781,363.076-43.169,649.99-243.765,756.631C3431.826,303.228,3170.302,305.757,3091.591,272.754z"/>
		<path fill="#333333" d="M4350.961-280.751c-213.291-101.562-454.502-406.25-495.122-624.614
			c-10.156-50.776-27.91-99.014-40.605-106.641c-30.474-17.759-30.474-408.789,0-426.543c12.695-7.642,30.449-43.193,38.081-81.284
			c10.142-35.527,48.223-96.445,83.784-132.002c55.864-55.869,93.95-68.56,238.657-76.172c139.648-7.642,192.983,0,289.458,48.252
			c124.424,60.923,322.465,256.436,373.247,365.605c15.229,35.532,38.086,63.477,50.781,63.477
			c10.142,0,20.312,20.308,20.312,45.693c0,22.866,20.303,78.711,43.164,119.346c53.311,96.479,66.011,599.219,15.225,616.978
			c-17.778,5.088-33.008,25.396-33.008,43.169c0,17.788-43.164,68.564-93.945,111.719c-83.784,68.56-114.253,78.711-248.823,76.172
			C4505.83-237.597,4401.748-255.361,4350.961-280.751z"/>
		<path fill="#333333" d="M1712.895-303.618c-73.633-15.22-142.188-68.545-243.755-187.886
			c-121.865-144.717-152.344-269.136-152.344-609.37c0-198.032,10.156-332.617,27.935-355.483
			c15.234-20.273,38.086-63.477,48.242-99.004c10.151-35.527,71.089-114.258,134.57-177.734l111.719-114.253h185.352h182.812
			l104.092,114.253c58.403,60.923,114.258,134.565,121.88,165.039c10.156,27.949,30.459,58.389,45.693,68.564
			c35.552,22.861,38.096,802.324,2.549,827.715c-12.695,10.166-48.242,60.947-73.628,114.258
			C2111.518-369.619,1903.32-262.988,1712.895-303.618z"/>
		<path fill="#333333" d="M2713.276-1758.486c-7.612-12.695-40.625-25.391-71.089-25.391
			c-50.781-2.549-205.664-50.781-380.854-121.86c-40.63-17.783-83.799-30.474-96.489-30.474c-12.695,0-22.852-10.151-22.852-22.837
			c0-20.332-93.95-60.952-132.036-55.894c-12.7,2.554-20.308-7.583-20.308-17.754c0-12.695-45.693-43.169-101.567-71.113
			c-55.864-25.381-101.558-55.84-101.558-63.472c0-10.142-27.93-25.371-63.481-33.008c-35.537-10.137-63.472-27.915-63.472-40.615
			c0-15.229-15.234-25.386-35.547-25.386c-20.317,0-53.315-15.225-73.623-35.562c-20.322-20.303-73.647-58.394-119.341-86.313
			c-132.036-81.25-457.026-413.857-497.661-507.812c-20.303-50.781-35.542-170.117-35.542-276.758
			c0-172.656,7.612-203.125,78.711-309.766c45.703-63.477,101.567-132.021,126.958-149.795
			c25.381-17.783,60.933-48.252,81.24-68.574c20.322-20.283,66.016-43.164,104.102-53.301c35.542-7.637,66.021-25.381,66.021-35.557
			c0-12.686,48.237-27.91,109.175-38.076c58.403-10.166,111.729-27.92,119.336-40.625c7.612-12.695,129.497-33.027,266.602-45.713
			c355.469-33.008,492.573-68.535,596.675-152.354c86.328-68.525,177.734-208.164,215.815-332.597
			c20.312-65.996,33.008-81.26,170.127-225.977c53.315-58.408,134.565-111.709,190.425-126.963
			c121.865-35.537,517.959-35.537,667.769,0c134.561,30.479,304.678,101.562,304.678,126.963c0,10.156,33.008,50.771,71.094,91.406
			c76.177,76.172,157.427,231.055,157.427,294.531c0,22.861,12.695,48.242,25.391,55.869
			c30.474,20.293,35.562,690.605,2.524,708.388c-12.695,7.617-30.449,88.857-40.61,180.273
			c-7.617,91.396-27.92,165.039-40.62,165.039c-12.69,0-22.856,32.998-22.856,73.643c0,43.145-10.166,81.23-22.856,88.867
			c-12.7,7.617-30.454,53.301-38.091,101.543c-10.142,50.791-33.003,121.88-53.306,159.971
			c-20.317,38.081-38.096,83.774-38.096,98.984c0,17.798-17.773,63.491-38.076,101.582c-20.312,40.635-38.086,93.955-38.086,116.807
			c0,22.842-7.617,45.703-17.788,50.781c-12.69,5.083-48.223,63.477-81.245,129.482
			c-99.009,205.649-363.076,424.023-507.803,424.023c-27.93,0-58.403,12.695-66.016,25.391
			c-7.607,15.249-126.948,25.391-266.597,25.391C2840.224-1733.095,2720.893-1743.237,2713.276-1758.486z"/>
		<path fill="#333333" d="M4909.555-1867.656c-91.396-43.169-180.269-96.509-198.047-111.724
			c-17.778-17.754-45.698-33.008-60.942-33.008c-12.7,0-63.481-40.64-109.175-88.862
			c-91.396-91.401-126.953-210.747-109.175-347.856c27.915-195.513,83.779-426.558,101.562-426.558
			c12.69,0,20.308-25.391,20.308-53.301c0-30.469,50.781-104.121,114.253-167.598l114.257-114.258l175.205,10.176
			c175.181,10.127,180.259,12.686,286.909,126.934c134.561,144.746,152.339,167.588,213.262,261.523
			c25.396,43.164,53.34,81.255,60.952,88.867c7.607,7.612,40.61,71.089,76.167,139.648c35.562,71.079,71.094,132.031,78.706,139.648
			c22.856,20.298,53.33,111.724,86.333,261.519c22.861,119.341-38.091,276.768-142.173,350.405
			c-55.869,40.61-111.733,48.223-307.246,48.223C5097.45-1786.425,5059.364-1794.013,4909.555-1867.656z"/>
	</g>
</g>
<g id="name">
	<g transform="translate(0.000000,966.000000) scale(0.100000,-0.100000)">
		<path d="M11242.997,6798.999c-118.994-20-275-101.997-355-185c-52.998-56.001-105-147.998-130.996-228.999
			c-32.002-102.002-31.006-285,2.998-370c47.002-122.002,125-213.999,249.004-296.001c210-138.999,531.992-149.995,752.998-26.001
			C11890.995,5766,11992.997,5886,12040.995,6020c20,56.001,23.008,83.999,23.008,195c0,117.002-3.008,137.002-27.002,197.998
			c-74.004,189.004-231.006,326.001-432.998,377.002C11520.995,6812.001,11344.003,6816,11242.997,6798.999z"/>
		<path d="M8934.999,6147.998c-330-42.998-605.996-80.996-612.998-82.998c-11.006-3.999-12.002-72.998-10-350l2.998-345h-222.002
			h-222.998v-25c0-20.996-5-25-27.002-25c-15.996,0-197.998,22.998-405.996,52.002c-207.002,27.998-379.004,48.994-380,47.002
			c-2.002-2.002-149.004-377.002-327.002-833.007c-177.998-455.996-325-825-327.002-820s-128.994,380-282.002,834.004
			c-266.992,790-280,825-302.998,822.998c-92.998-7.998-1263.994-135-1265.996-137.998c-2.002-2.002,347.998-820,405-944.003
			c12.998-30,112.002-256.992,217.998-505c107.002-247.998,280.996-652.998,387.998-900.996l192.998-450l465-2.998l466.006-2.002
			l30.996,62.002c17.002,35,124.004,252.002,237.002,482.998c114.004,230.996,282.998,572.998,374.004,760
			c448.994,912.998,535.996,1087.002,538.994,1072.002s26.006-17.002,225-17.002h222.002v-792.998
			c0.996-949.004,5.996-1011.006,97.998-1192.002c137.002-272.002,432.002-414.004,912.002-440
			c307.998-15.996,825.996,52.998,1135.996,152.002l87.002,27.998l-75.996,255c-41.006,140-76.006,255.996-77.998,257.998
			c-1.006,2.002-39.004-7.998-84.004-22.998c-182.002-57.002-355.996-55.996-462.998,2.998
			c-136.006,72.998-222.998,265-247.002,542.002c-5,62.998-10,360.996-10,662.998V4840h425h425v265v265h-425h-425v430v430
			l-27.002-1.001C9547.001,6227.998,9264.999,6192.001,8934.999,6147.998z"/>
		<path d="M13657,5427.998c-597.998-45-1091.006-487.998-1232.998-1107.998c-68.007-299.004-49.999-682.002,46.992-975
			c71.006-215,191.006-412.002,344.004-567.002c240.996-242.998,547.002-360.996,935-362.002c359.004,0,590.996,94.004,895,363.008
			l90,78.994l2.998-155.996c7.002-370-40.996-559.004-180-707.998c-170-182.002-402.998-264.004-742.998-264.004
			c-309.004,0.996-665,82.998-925,215c-29.004,15-54.004,24.004-57.002,20.996c-7.002-5.996-182.998-643.994-182.998-661.992
			c0-14.004,97.002-46.006,322.998-108.008c605-165.996,1266.006-200,1751.006-90.996c325,74.004,600,219.004,803.994,424.004
			c116.006,116.992,201.006,237.998,277.002,395.996c115,237.002,169.004,449.004,190.996,745
			c3.008,47.002,8.008,100.996,11.006,120c2.998,19.004,7.998,607.998,10,1307.998l5,1272.001h-641.006h-640.996v-192.002v-192.002
			l-37.002,45C14454.998,5330.996,14107.996,5462.998,13657,5427.998z M14362,4810c187.998-57.998,302.002-230,355-537.998
			c23.994-137.998,23.994-519.004,0-657.002c-40-227.998-109.004-387.998-217.002-495.996c-80-81.006-149.004-111.006-255-111.006
			c-237.998,0-419.004,227.002-490.996,617.002c-26.006,140-26.006,525,0,670c52.998,297.998,160.996,464.003,340.996,520.996
			C14157.996,4835.996,14287.996,4832.998,14362,4810z"/>
		<path d="M17934.998,5427.998c-522.002-33.994-964.004-230.996-1265-562.998c-205-225.996-312.002-495-325.996-822.998
			c-18.008-394.004,118.994-757.002,393.994-1044.004c160-167.002,307.002-275.996,500-372.002
			c291.006-145.996,587.002-208.994,977.002-208.994c437.002-1.006,830,75.996,1302.002,255l132.002,50l-15,28.994
			c-8.008,16.006-63.008,111.006-123.008,212.002c-58.994,100-126.992,214.004-150,254.004c-22.998,40-45.996,75-50.996,77.998
			s-35-5-67.002-19.004c-287.998-120.996-603.994-185.996-837.998-171.992c-230.996,12.998-415,85-539.004,208.994
			c-38.994,40-85,99.004-102.998,132.002c-35.996,69.004-68.994,180.996-77.998,272.998l-7.002,62.002h985h985l7.002,94.004
			c9.004,122.998-2.002,322.998-25,460.996c-69.004,407.001-320.996,759.003-665,932.001
			C18709.002,5397.001,18339.002,5454.003,17934.998,5427.998z M18282,4929.003c115.996-39.004,185-104.004,235-223.008
			c32.002-75.996,52.998-210,52.998-331.992V4270h-445.996h-446.006l6.006,102.998c21.992,312.998,122.998,500,302.998,557.001
			C18069.002,4957.001,18202,4955.996,18282,4929.003z"/>
		<path d="M22034.998,5432.001c-100-10-219.004-65-315.996-145c-114.004-95-202.002-217.998-345-482.002l-49.004-90l-2.998,327.998
			l-2.002,327.002h-635c-500.996,0-635-2.998-635-12.002c0-8.994,0-2675.996,0-2870c0-5,285.996-7.998,635-7.998h635v552.998
			c0,302.998,2.998,592.998,5.996,642.002c18.008,322.002,65,457.998,204.004,587.998c115.996,109.004,254.004,157.998,450,157.998
			c132.998,0,220-11.992,325.996-45c41.006-12.998,76.006-20.996,78.008-16.992c1.992,2.998,80.996,195,175.996,425l172.998,418.994
			l-23.994,17.998c-13.008,11.006-87.002,51.006-164.004,89.004C22352.996,5405.996,22182.996,5447.001,22034.998,5432.001z"/>
		<path d="M10759.999,3925V2480h640h640v1445v1445h-640h-640V3925z"/>
	</g>
</g>
</svg>
